<?xml version="1.0" encoding="UTF-8"?>
<svg xmlns="http://www.w3.org/2000/svg" version="1.1" viewBox="0 0 300 90">
  <defs>
    <style>
      .cls-1 {
        stroke-width: 2px;
      }

      .cls-1, .cls-2, .cls-3, .cls-4, .cls-5 {
        fill: none;
        stroke-miterlimit: 10;
      }

      .cls-1, .cls-2, .cls-4 {
        stroke: #231f20;
      }

      .cls-2 {
        stroke-width: 3px;
      }

      .cls-3 {
        stroke: #f15d61;
      }

      .cls-6 {
        fill: #f15c61;
      }

      .cls-7 {
        font-family: SegoeUIHistoric, 'Segoe UI Historic';
        font-size: 3.7px;
      }

      .cls-7, .cls-8 {
        fill: #272c66;
      }

      .cls-5 {
        stroke: #151111;
      }
    </style>
  </defs>
  <!-- Generator: Adobe Illustrator 28.7.0, SVG Export Plug-In . SVG Version: 1.2.0 Build 136)  -->
  <g>
    <g id="Layer_1">
      <g>
        <polygon class="cls-8" points="111.2 18.3 135.4 23.4 147.4 41.2 134 41.2 111.2 18.3"/>
        <polygon class="cls-8" points="135.8 23.2 140.6 30.2 145.7 30.2 175.1 1.4 149.2 7.8 135.8 23.2"/>
        <line class="cls-1" x1="174.5" y1="2.2" x2="205.6" y2="33.8"/>
        <line class="cls-1" x1="180.5" y1="20.4" x2="200.7" y2="40"/>
        <polygon class="cls-8" points="147.4 41.2 160 25 181.1 19.5 161.2 40 161.2 40.8 147.4 41.2"/>
        <line class="cls-1" x1="91.2" y1="40" x2="111.8" y2="19.2"/>
        <line class="cls-1" x1="94.6" y1="36.6" x2="95" y2="47.6"/>
        <line class="cls-1" x1="197.7" y1="37.3" x2="197.9" y2="47.3"/>
        <line class="cls-2" x1="97.1" y1="24.3" x2="98.1" y2="33"/>
        <polygon class="cls-6" points="184.8 27.3 179.6 27.4 174.8 27.5 179.7 22.2 184.8 27.3"/>
        <polygon class="cls-6" points="117.7 26.2 112.6 26.2 107.6 26.2 112.6 21.1 117.7 26.2"/>
        <g>
          <rect class="cls-6" x="108.3" y="32.4" width="2.2" height="2.2" rx=".3" ry=".3"/>
          <rect class="cls-6" x="111.1" y="32.4" width="2.2" height="2.2" rx=".3" ry=".3"/>
          <rect class="cls-6" x="108.3" y="35.2" width="2.2" height="2.2" rx=".3" ry=".3"/>
          <rect class="cls-6" x="111.1" y="35.2" width="2.2" height="2.2" rx=".3" ry=".3"/>
        </g>
        <g>
          <rect class="cls-6" x="178" y="32.1" width="2.2" height="2.2" rx=".3" ry=".3"/>
          <rect class="cls-6" x="180.8" y="32.1" width="2.2" height="2.2" rx=".3" ry=".3"/>
          <rect class="cls-6" x="178" y="34.9" width="2.2" height="2.2" rx=".3" ry=".3"/>
          <rect class="cls-6" x="180.8" y="34.9" width="2.2" height="2.2" rx=".3" ry=".3"/>
        </g>
        <line class="cls-4" x1="84.5" y1="50.8" x2="95.8" y2="47.1"/>
        <line class="cls-4" x1="196.6" y1="46.6" x2="207.9" y2="50.8"/>
        <path class="cls-5" d="M84.8,52.2s51.3-13.5,122.8-.1"/>
        <path class="cls-5" d="M84.8,55.4s51.3-13.5,122.8-.1"/>
        <line class="cls-2" x1="195.8" y1="15" x2="195.9" y2="23.8"/>
        <g>
          <path class="cls-8" d="M84.5,70c-.1,0-.2,0-.3,0s-.1,0-.2-.1c0,0,0-.2,0-.3,0-.1,0-.3,0-.5,0-2.8-.1-4.1-.2-6.9,0-.2,0-.4,0-.6,0-.2,0-.3,0-.4,0-.1,0-.2.1-.3s.2-.1.3-.1c.8-.2,1.1-.3,1.9-.4.6-.1,1.2-.1,1.6,0,.5.2.9.4,1.2.8.3.4.6.8.8,1.3.2.5.3,1.1.3,1.6,0,.6,0,1.2-.2,1.7-.1.6-.4,1.1-.7,1.6-.3.5-.7.9-1.2,1.3s-1,.6-1.7.8c-.8.2-1.2.3-1.9.4ZM86.2,67.9c.4-.1.7-.3,1-.7.2-.4.4-.8.5-1.2.1-.5.1-.9.1-1.4,0-.5-.1-1-.3-1.4-.1-.4-.3-.7-.6-.9-.3-.2-.5-.3-.9-.2,0,2.4,0,3.5.2,5.9Z"/>
          <path class="cls-8" d="M90.8,59.4c.8-.2,1.2-.3,2-.4,0,0,.1,0,.1,0,0,0,0,.2,0,.2.4,2,.6,2.9,1.1,4.9,0,0,0,0,.1,0,.3-2.1.5-3.2.9-5.3,0,0,0-.1,0-.2,0,0,0-.1.1-.2.7-.1,1.1-.2,1.8-.3,0,0,.1,0,.1.1s0,.2,0,.2c.4,2,.7,2.9,1.1,4.9,0,0,0,0,.1,0,.3-2.1.5-3.2.9-5.3,0,0,0-.2,0-.3,0,0,0-.1.1-.1.8-.1,1.2-.2,2-.4,0,0,.1,0,.1,0,0,0,0,.2,0,.3-.6,3.4-.8,5.1-1.4,8.5,0,.1,0,.2,0,.4,0,.1,0,.2-.2.2-1.1.2-1.6.3-2.7.5,0,0-.1,0-.1,0,0,0,0,0,0-.1,0,0,0-.1,0-.2,0,0,0-.1,0-.2-.3-1.2-.4-1.8-.7-3-.2,1.3-.3,1.9-.5,3.2,0,.1,0,.2,0,.4s0,.2-.2.2c-1.1.2-1.6.3-2.7.5,0,0-.1,0-.2,0s0,0-.1-.1c0,0,0-.1,0-.2,0,0,0-.1,0-.2-.7-3.1-1-4.7-1.7-7.8,0-.1,0-.2,0-.3,0,0,0-.1.1-.2Z"/>
          <path class="cls-8" d="M101.5,66.5c-.1,0-.2,0-.1-.1,0,0,0-.2,0-.3.6-3.4,1-5.1,1.6-8.4,0-.1,0-.3.1-.4,0-.1.1-.2.3-.3,1.1-.2,1.7-.3,2.8-.4.1,0,.2,0,.2.2,0,.1,0,.2,0,.3.8,3.2,1.2,4.8,1.9,8,0,.1,0,.2,0,.3,0,0,0,.1-.1.1-.8.1-1.2.2-2,.3,0,0-.1,0-.2,0,0,0,0-.1,0-.2-.1-.5-.2-.8-.3-1.3-.7.1-1.1.2-1.8.3-.1.5-.2.8-.3,1.3,0,0,0,.2,0,.3,0,0,0,.1-.1.1-.8.1-1.2.2-2,.3ZM105.4,62.6c-.2-.8-.3-1.2-.5-2.1,0,0,0,0-.1,0-.2.9-.3,1.3-.4,2.2.4,0,.6-.1,1.1-.2Z"/>
          <path class="cls-8" d="M109.8,56c.9-.1,1.4-.2,2.3-.3.4,0,.8,0,1.2,0,.4,0,.7.2,1,.4.3.2.6.4.8.7.2.3.3.7.4,1.2,0,.3,0,.6,0,.9,0,.3,0,.6-.2.9,0,.3-.2.6-.4.8-.2.3-.4.5-.6.7.6,1,.9,1.5,1.5,2.5,0,0,0,.1,0,.2,0,0,0,.1,0,.2,0,0,0,.1,0,.2,0,0,0,0-.1,0-.8,0-1.2.1-2,.2-.1,0-.2,0-.3-.2,0-.1-.2-.2-.2-.4-.5-.9-.8-1.3-1.3-2.2,0,0-.1,0-.2,0,0,.8,0,1.2,0,2.1,0,.2,0,.3,0,.4,0,.1,0,.2,0,.3,0,0,0,.1,0,.1,0,0,0,0-.1,0-.7,0-1.1.1-1.8.3,0,0-.1,0-.2,0,0,0,0,0,0-.1,0,0,0-.1,0-.3,0-.1,0-.3,0-.4,0-3,0-4.5-.1-7.4,0-.2,0-.3,0-.4,0-.1,0-.2,0-.3,0,0,0-.1.1-.2,0,0,.2,0,.3,0ZM111.7,60.2c0,0,.2,0,.3,0s.2,0,.3,0c.1,0,.2,0,.3,0,0,0,.2,0,.2-.1.1-.1.2-.3.3-.6,0-.3,0-.5,0-.8,0-.3,0-.5-.1-.7,0-.2-.1-.4-.2-.4,0,0-.1,0-.2,0,0,0-.2,0-.3,0s-.2,0-.3,0-.2,0-.3,0c0,1.1,0,1.7,0,2.8Z"/>
          <path class="cls-8" d="M117.4,64.3c-.1,0-.2,0-.3,0,0,0,0-.1,0-.3,0-3.4,0-5.1-.1-8.5,0-.1,0-.2,0-.3,0,0,.2,0,.3-.1.6,0,.9-.1,1.6-.2.1,0,.2,0,.3,0,0,0,0,.1,0,.2,0,1,0,1.5,0,2.5.8-1.1,1.1-1.6,1.9-2.6.1-.1.2-.2.3-.3,0,0,.2,0,.3-.1.8,0,1.2-.1,2-.2.1,0,.2,0,.3,0,0,0,0,.1,0,.3-1.1,1.6-1.7,2.3-2.8,3.9,1.2,1.8,1.9,2.7,3.1,4.6,0,.1,0,.2,0,.2s-.1,0-.3,0c-.8,0-1.1.1-1.9.2-.1,0-.2,0-.3,0,0,0-.2-.1-.2-.2-.7-1.1-1.1-1.7-1.8-2.8-.2.2-.2.3-.4.6,0,1,0,1.5,0,2.5,0,.1,0,.2,0,.3,0,0-.2,0-.3,0-.6,0-.9.1-1.6.2Z"/>
          <path class="cls-8" d="M125.5,63.5c-.1,0-.2,0-.1-.1,0,0,0-.2,0-.3.7-3.3,1-4.9,1.7-8.2,0-.1,0-.3.1-.4,0-.1.1-.2.3-.2,1.1,0,1.7-.1,2.8-.2.1,0,.2,0,.2.2,0,.1,0,.2,0,.4.7,3.2,1.1,4.9,1.9,8.1,0,.1,0,.2,0,.3,0,0,0,.1-.1.1-.8,0-1.2,0-2,.1,0,0-.1,0-.2-.1,0,0,0-.2,0-.2-.1-.5-.2-.8-.3-1.3-.7,0-1.1,0-1.8.1-.1.5-.2.8-.3,1.3,0,0,0,.2,0,.3,0,0,0,.1-.2.1-.8,0-1.2,0-2,.2ZM129.5,59.9c-.2-.8-.3-1.3-.5-2.1,0,0,0,0-.1,0-.2.9-.3,1.3-.4,2.2.4,0,.6,0,1.1,0Z"/>
          <path class="cls-8" d="M137.8,62.8c-.2,0-.3,0-.3-.1,0-.1,0-.2,0-.4,0-3.2,0-4.8,0-8,0-.2,0-.4,0-.5,0,0,.1-.1.3-.1,2,0,3,0,5-.1.1,0,.2,0,.3,0,0,0,0,.1,0,.2,0,.5,0,.8,0,1.4,0,.1,0,.2,0,.2,0,0-.2,0-.3,0-1.2,0-1.8,0-3,0,0,.7,0,1,0,1.7,1,0,1.4,0,2.4,0,.1,0,.2,0,.3,0,0,0,0,.1,0,.2,0,.4,0,.6,0,1,0,.1,0,.2,0,.2,0,0-.2,0-.3,0-1,0-1.4,0-2.4,0,0,.7,0,1.1,0,1.8,1.2,0,1.9,0,3.1,0,.1,0,.2,0,.3,0,0,0,0,.1,0,.2,0,.5,0,.8,0,1.4,0,.1,0,.2,0,.2,0,0-.2,0-.3,0-2,0-3.1,0-5.1.1Z"/>
          <path class="cls-8" d="M149.7,62.6c-.1,0-.2,0-.3,0,0,0-.1-.1-.2-.3-.4-.8-.7-1.2-1.1-1.9-.4.8-.7,1.2-1.1,1.9,0,.1-.2.2-.2.3,0,0-.2,0-.3,0-.7,0-1.1,0-1.8,0-.1,0-.2,0-.3,0s0-.1,0-.3c1-1.7,1.4-2.6,2.4-4.3-1-1.7-1.5-2.5-2.4-4.2,0-.1,0-.2,0-.3,0,0,.1,0,.3,0,.7,0,1.1,0,1.9,0,.1,0,.2,0,.3,0,0,0,.1.1.2.3.5.8.7,1.2,1.1,2,.5-.8.7-1.2,1.1-2,0-.1.2-.2.2-.3s.2,0,.3,0c.7,0,1.1,0,1.9,0,.1,0,.2,0,.3,0,0,0,0,.1,0,.3-1,1.7-1.5,2.5-2.4,4.2,1,1.7,1.4,2.6,2.4,4.3,0,.1,0,.2,0,.3,0,0-.2,0-.3,0-.7,0-1.1,0-1.8,0Z"/>
          <path class="cls-8" d="M155.7,53.5c1,0,1.8.3,2.4.8.5.5.8,1.2.8,2.1,0,.5,0,.9-.1,1.3,0,.4-.3.7-.5.9-.2.3-.6.4-1,.6-.4.1-1,.2-1.6.2,0,0-.1,0-.2,0,0,1.2,0,1.8,0,3,0,.1,0,.2,0,.3,0,0-.2,0-.3,0-.6,0-.9,0-1.6,0-.1,0-.2,0-.3,0,0,0,0-.1,0-.3,0-3.4,0-5.1,0-8.4,0-.1,0-.2,0-.3,0,0,.2,0,.3,0,.9,0,1.4,0,2.3,0ZM155.4,57.7c0,0,.1,0,.2,0,.3,0,.4,0,.6-.1.1,0,.2-.2.3-.3,0-.1,0-.3,0-.4,0-.2,0-.3,0-.5,0-.2,0-.4,0-.5,0-.1,0-.3-.2-.3,0,0-.2-.1-.3-.2-.1,0-.2,0-.4,0-.1,0-.2,0-.3,0,0,1,0,1.5,0,2.4Z"/>
          <path class="cls-8" d="M160.4,53.7c.9,0,1.4,0,2.3.1.4,0,.8,0,1.2.2.4.1.7.3,1,.5s.6.5.8.9c.2.4.3.8.3,1.2,0,.3,0,.6,0,.9,0,.3-.1.6-.2.9-.1.3-.2.5-.4.8-.2.2-.4.4-.6.6.6,1.1.9,1.7,1.4,2.8,0,0,0,.1,0,.2,0,0,0,.1,0,.2,0,0,0,.1,0,.2,0,0,0,0-.1,0-.8,0-1.2,0-2-.1-.1,0-.2,0-.3-.2s-.2-.3-.2-.4c-.5-1-.7-1.4-1.2-2.4,0,0-.1,0-.2,0,0,.8,0,1.2,0,2.1,0,.2,0,.3,0,.4,0,.1,0,.2,0,.3,0,0,0,0,0,.1,0,0,0,0-.1,0-.7,0-1.1,0-1.8,0,0,0-.1,0-.2,0,0,0,0,0,0-.1,0,0,0-.1,0-.3,0-.1,0-.3,0-.4,0-2.9,0-4.4,0-7.4,0-.2,0-.3,0-.4,0-.1,0-.2,0-.3,0,0,0-.1.1-.1,0,0,.2,0,.3,0ZM162.2,58.3c0,0,.2,0,.3,0,.1,0,.2,0,.3,0,.1,0,.2,0,.3,0,0,0,.2,0,.2,0,.1-.1.2-.3.3-.5,0-.2,0-.5,0-.8,0-.3,0-.5-.1-.8,0-.2-.1-.4-.2-.5,0,0,0,0-.2,0,0,0-.2,0-.3,0s-.2,0-.3,0c-.1,0-.2,0-.3,0,0,1.1,0,1.7,0,2.8Z"/>
          <path class="cls-8" d="M167.9,63.3c-.2,0-.3,0-.3-.2,0-.1,0-.3,0-.4,0-3.2,0-4.8,0-7.9,0-.2,0-.4,0-.5s.1-.1.3-.1c2,.1,3,.2,5,.4.1,0,.2,0,.3.1,0,0,0,.1,0,.3,0,.5,0,.8,0,1.4,0,.1,0,.2,0,.2,0,0-.2,0-.3,0-1.2-.1-1.8-.2-3-.3,0,.7,0,1,0,1.6,1,0,1.4.1,2.4.2.1,0,.2,0,.3.1,0,0,0,.1,0,.3,0,.4,0,.6,0,1,0,.1,0,.2,0,.2,0,0-.2,0-.3,0-1,0-1.4-.1-2.4-.2,0,.7,0,1.1,0,1.8,1.2.1,1.9.2,3.1.3.1,0,.2,0,.3.1s0,.1,0,.3c0,.5,0,.8,0,1.4,0,.1,0,.2,0,.2,0,0-.2,0-.3,0-2-.2-3-.3-5.1-.4Z"/>
          <path class="cls-8" d="M176.7,57.5c0,.2,0,.4.3.6.2.2.4.4.7.6.3.2.6.4.9.6.3.2.6.5.9.7.3.3.5.6.7,1,.2.4.3.8.3,1.2,0,.5-.2.9-.5,1.2-.3.3-.7.5-1.1.6-.5.1-.9.2-1.5,0s-1-.2-1.5-.4-.8-.5-1.1-1c-.3-.4-.4-.9-.4-1.5,0-.1,0-.2,0-.3,0,0,.2,0,.3,0,.6,0,.9,0,1.6.2.3,0,.4.2.4.4,0,.3,0,.5.2.7.1.2.3.2.5.3.2,0,.3,0,.5-.1.2,0,.2-.2.2-.4,0-.3,0-.5-.3-.7s-.4-.4-.7-.6c-.3-.2-.6-.4-.9-.6-.3-.2-.6-.4-.9-.7-.3-.3-.5-.6-.7-.9-.2-.3-.3-.7-.3-1.2,0-.5.2-1,.5-1.3.3-.3.7-.6,1.1-.7.4-.1.9-.2,1.4-.2.5,0,1,.2,1.4.4.4.2.8.5,1.1.9.3.4.4.8.4,1.3,0,.1,0,.2,0,.2,0,0-.2,0-.3,0-.6,0-.9,0-1.6-.1-.1,0-.2,0-.3,0,0,0-.1-.1,0-.3,0-.2,0-.4-.2-.5-.1-.1-.3-.2-.4-.2-.2,0-.3,0-.5.2-.1.1-.2.3-.2.6Z"/>
          <path class="cls-8" d="M183.9,58.4c0,.2,0,.4.3.6s.4.4.7.6c.3.2.6.4.9.6.3.2.6.5.9.8.3.3.5.6.7,1,.2.4.3.8.3,1.3,0,.5-.2.9-.5,1.2-.3.3-.7.5-1.1.6-.5.1-.9.1-1.5,0s-1-.2-1.5-.5c-.4-.2-.8-.6-1.1-1-.3-.4-.4-.9-.4-1.5,0-.1,0-.2,0-.3,0,0,.2,0,.3,0,.6,0,.9.1,1.6.2.3,0,.4.2.4.4,0,.3,0,.5.2.7.1.2.3.3.5.3.2,0,.3,0,.5,0,.2,0,.2-.2.2-.4,0-.3,0-.5-.3-.7-.2-.2-.4-.4-.7-.6-.3-.2-.6-.4-.9-.6-.3-.2-.6-.5-.9-.7-.3-.3-.5-.6-.7-.9-.2-.3-.3-.8-.3-1.2,0-.5.2-1,.5-1.3s.7-.6,1.1-.7c.4-.1.9-.2,1.4-.1.5,0,1,.2,1.4.4s.8.5,1.1.9c.3.4.4.8.4,1.3,0,.1,0,.2,0,.2,0,0-.2,0-.3,0-.6,0-.9-.1-1.6-.2-.1,0-.2,0-.3-.1,0,0,0-.1,0-.3,0-.2,0-.4-.2-.5-.1-.1-.3-.2-.4-.2-.2,0-.3,0-.5.2-.1.1-.2.3-.2.6Z"/>
          <path class="cls-8" d="M188.4,56.5c.8.1,1.2.2,2.1.3,0,0,.1,0,.1.1,0,0,0,.2,0,.3.4,2.1.5,3.1.9,5.2,0,0,0,0,.1,0,.4-2,.6-2.9,1.1-4.9,0,0,0-.1,0-.2,0,0,0-.1.1-.1.7.1,1.1.2,1.8.3,0,0,.1,0,.1.2,0,0,0,.2,0,.2.4,2.1.5,3.1.9,5.2,0,0,0,0,.1,0,.4-1.9.6-2.9,1.1-4.9,0,0,0-.2,0-.2,0,0,0-.1.1,0,.8.1,1.2.2,2,.4,0,0,.1,0,.1.1,0,0,0,.2,0,.3-.7,3.1-1,4.7-1.7,7.8,0,.1,0,.2,0,.3,0,.1-.1.2-.2.2-1.1-.2-1.6-.3-2.7-.5,0,0-.1,0-.1,0,0,0,0-.1,0-.2,0,0,0-.1,0-.2,0,0,0-.1,0-.2-.2-1.2-.3-1.9-.5-3.1-.3,1.2-.4,1.8-.6,3,0,.1,0,.2,0,.3s-.1.2-.2.2c-1.1-.2-1.6-.3-2.7-.4,0,0-.1,0-.2,0s0-.1,0-.2c0,0,0-.1,0-.2,0,0,0-.1,0-.2-.6-3.3-.9-4.9-1.4-8.2,0-.1,0-.2,0-.3s0-.1.1-.1Z"/>
          <path class="cls-8" d="M198.8,67.3c-.1,0-.2,0-.1-.2,0,0,0-.2,0-.3.8-3.1,1.1-4.6,1.9-7.7,0-.1,0-.2.1-.4,0-.1.2-.2.3-.2,1.1.2,1.6.3,2.7.6.1,0,.2.1.2.2s0,.3,0,.4c.6,3.4,1,5.1,1.6,8.5,0,.1,0,.2,0,.3,0,0,0,.1-.1,0-.8-.2-1.2-.3-2-.4,0,0-.1,0-.1-.1,0,0,0-.2,0-.3-.1-.5-.2-.8-.3-1.4-.7-.1-1.1-.2-1.8-.4-.1.5-.2.7-.3,1.2,0,0,0,.2,0,.2,0,0,0,.1-.2,0-.8-.2-1.2-.2-2-.4ZM202.8,64.8c-.2-.9-.2-1.3-.4-2.2,0,0,0,0-.1,0-.2.8-.3,1.2-.5,2,.4,0,.6.1,1.1.2Z"/>
          <path class="cls-8" d="M205.4,59.6c.8.2,1.1.2,1.9.4,0,0,.1,0,.2.2,0,0,0,.2.1.3.4,1,.6,1.6,1,2.6,0,0,0,0,.1,0,.5-.9.7-1.3,1.2-2.1,0,0,0-.1.1-.2,0,0,.1,0,.2,0,.8.2,1.1.3,1.9.5,0,0,.1,0,.2.2,0,0,0,.2,0,.3-1,1.9-1.5,2.8-2.5,4.6,0,1,0,1.5,0,2.6,0,.2,0,.3,0,.4,0,.1,0,.2,0,.2,0,0,0,0,0,.1,0,0,0,0-.1,0-.7-.2-1.1-.2-1.8-.4-.1,0-.2,0-.2-.2,0,0,0-.3,0-.6,0-1.1,0-1.7,0-2.8-.9-2.2-1.3-3.3-2.2-5.6,0-.1,0-.3,0-.3,0,0,0-.1.2-.1Z"/>
          <path class="cls-6" d="M125,69.2c1,0,1.8,0,2.4.5.5.4.8,1.1.8,2.1,0,.5,0,.9-.1,1.3,0,.4-.3.7-.5,1-.2.3-.6.5-1,.7-.4.2-.9.3-1.6.3,0,0-.1,0-.2,0,0,1.2,0,1.8,0,3,0,.1,0,.2,0,.3,0,0-.2,0-.3,0-.6,0-.9,0-1.6.1-.1,0-.2,0-.3,0,0,0,0-.1,0-.3,0-3.4,0-5.1,0-8.5,0-.1,0-.2,0-.3s.2,0,.3,0c.9,0,1.3-.1,2.2-.2ZM124.8,73.4c0,0,.1,0,.2,0,.2,0,.4,0,.6-.2.1,0,.2-.2.3-.3,0-.1,0-.3,0-.4,0-.2,0-.3,0-.5,0-.2,0-.4,0-.5,0-.1,0-.2-.2-.3,0,0-.2-.1-.3-.1-.1,0-.2,0-.4,0-.1,0-.2,0-.3,0,0,1,0,1.5,0,2.5Z"/>
          <path class="cls-6" d="M129.7,68.9c.9,0,1.4,0,2.3-.1.4,0,.8,0,1.2,0,.4,0,.7.2,1,.4s.6.5.8.8c.2.3.3.7.4,1.2,0,.3,0,.6,0,.9,0,.3-.1.6-.2.9,0,.3-.2.6-.4.8s-.4.5-.6.6c.6,1,.9,1.6,1.4,2.6,0,0,0,.1,0,.2,0,0,0,.1,0,.2,0,0,0,.1,0,.2s0,0-.1,0c-.8,0-1.2,0-2,.1-.1,0-.2,0-.3-.2,0-.1-.2-.3-.2-.4-.5-.9-.8-1.4-1.3-2.3,0,0-.1,0-.2,0,0,.8,0,1.2,0,2.1,0,.2,0,.3,0,.4,0,.1,0,.2,0,.3,0,0,0,.1,0,.1,0,0,0,0-.1,0-.7,0-1.1,0-1.8.1,0,0-.1,0-.2,0,0,0,0,0,0-.1,0,0,0-.1,0-.3,0-.1,0-.3,0-.4,0-3,0-4.4,0-7.4,0-.2,0-.3,0-.4,0-.1,0-.2,0-.3,0,0,0-.1.1-.2,0,0,.2,0,.3,0ZM131.6,73.2c0,0,.2,0,.3,0s.2,0,.3,0c.1,0,.2,0,.3,0,0,0,.2,0,.2,0,.1-.1.2-.3.3-.6,0-.3,0-.5,0-.8s0-.5-.1-.7c0-.2-.1-.4-.2-.4,0,0,0,0-.2,0,0,0-.2,0-.3,0-.1,0-.2,0-.3,0s-.2,0-.3,0c0,1.1,0,1.7,0,2.8Z"/>
          <path class="cls-6" d="M136.4,75.1c0-1.5,0-2.3,0-3.8,0-.5,0-.9.3-1.2.2-.4.5-.7.8-.9.3-.3.7-.4,1.1-.6.4-.1.8-.2,1.2-.2.4,0,.8,0,1.2.1.4.1.7.3,1,.5.3.2.5.5.7.9.2.4.3.8.3,1.3,0,1.3,0,2,0,3.4,0,.5,0,.9-.3,1.3-.2.4-.4.7-.7.9-.3.2-.6.4-1,.6-.4.1-.8.2-1.2.2-.4,0-.8,0-1.2-.1-.4-.1-.7-.3-1.1-.5-.3-.2-.6-.5-.8-.8-.2-.3-.3-.7-.3-1.1ZM140.6,71.1c0-.4,0-.7-.3-.8-.2-.2-.4-.3-.6-.3-.2,0-.5.1-.7.3-.2.2-.3.5-.3.9,0,1.5,0,2.3,0,3.8,0,.3.1.5.3.7.2.1.4.2.7.2.2,0,.4,0,.6-.2.2-.2.3-.4.3-.7,0-1.5,0-2.3,0-3.8Z"/>
          <path class="cls-6" d="M147.5,75.4c0,.3,0,.6-.3.9-.2.3-.4.5-.7.6-.3.2-.6.3-.9.4-.3,0-.7.1-1,.1-.2,0-.3,0-.5,0-.1,0-.2-.1-.2-.2,0-.6,0-.8,0-1.4,0,0,0-.2.1-.2,0,0,.2,0,.3-.1,0,0,.2,0,.3,0,0,0,.2,0,.3,0s.2,0,.2-.2c0,0,0-.2,0-.3,0-2.5,0-3.7,0-6.2,0-.3.1-.4.4-.4.6,0,.9,0,1.6,0,.1,0,.2,0,.3,0,0,0,.1.2.1.3,0,2.7,0,4,0,6.7Z"/>
          <path class="cls-6" d="M149.1,77.4c-.2,0-.3,0-.3-.2,0-.1,0-.2,0-.4,0-3.2,0-4.8,0-7.9,0-.2,0-.4,0-.5,0,0,.1-.1.3-.1,2,0,3,0,5,0,.1,0,.2,0,.3,0,0,0,0,.1,0,.2,0,.5,0,.8,0,1.4,0,.1,0,.2,0,.2,0,0-.2,0-.3,0-1.2,0-1.8,0-3,0,0,.7,0,1,0,1.6,1,0,1.4,0,2.4,0,.1,0,.2,0,.3,0,0,0,0,.1,0,.2,0,.4,0,.6,0,1,0,.1,0,.2,0,.2,0,0-.2,0-.3,0-.9,0-1.4,0-2.4,0,0,.7,0,1.1,0,1.8,1.2,0,1.9,0,3.1,0,.1,0,.2,0,.3,0,0,0,0,.1,0,.2,0,.5,0,.8,0,1.4,0,.1,0,.2,0,.2,0,0-.2,0-.3,0-2,0-3,0-5.1,0Z"/>
          <path class="cls-6" d="M155.7,74.9c0-1.5,0-2.3,0-3.8,0-.5,0-.9.3-1.2s.4-.6.8-.8c.3-.2.7-.4,1.1-.5.4,0,.8-.1,1.2-.1.4,0,.8,0,1.2.2.4.1.7.3,1,.5.3.2.5.5.7.7.2.3.3.6.3,1,0,.2,0,.3,0,.4,0,.1,0,.2,0,.3,0,0,0,0,0,.1,0,0,0,0-.1,0-.7,0-1.1,0-1.8,0,0,0-.1,0-.2,0,0,0,0,0,0-.1,0,0,0-.1,0-.3,0-.1,0-.3,0-.4,0-.2,0-.3-.3-.5-.2-.1-.4-.2-.6-.2-.1,0-.2,0-.4,0-.1,0-.2,0-.3.2,0,0-.2.2-.2.3,0,.1,0,.3,0,.5,0,1.5,0,2.3,0,3.8,0,.3,0,.5.3.7.2.1.4.2.7.2.2,0,.4,0,.6-.1.2-.1.3-.3.3-.4,0-.2,0-.3,0-.4,0-.1,0-.2,0-.3,0,0,0,0,0-.1,0,0,0,0,.2,0,.7,0,1.1,0,1.8,0,0,0,.1,0,.1,0,0,0,0,0,0,.1,0,0,0,.1,0,.3,0,.1,0,.3,0,.4,0,.4,0,.7-.3,1-.2.3-.4.5-.7.7-.3.2-.7.3-1.1.4-.4,0-.8.1-1.2.1s-.8,0-1.2-.2c-.4-.1-.7-.3-1-.5-.3-.2-.5-.5-.7-.8-.2-.3-.3-.7-.3-1.1Z"/>
          <path class="cls-6" d="M163.6,70.7c-.1,0-.2,0-.3-.1,0,0,0-.1,0-.2,0-.5,0-.8,0-1.4,0-.1,0-.2,0-.2,0,0,.1,0,.3,0,2.7.2,4.1.2,6.9.5.1,0,.2,0,.3.1,0,0,0,.1,0,.3,0,.5,0,.8,0,1.4,0,.1,0,.2,0,.2,0,0-.1,0-.3,0-.9,0-1.3-.1-2.2-.2,0,2.5,0,3.7,0,6.2,0,.2,0,.3,0,.4,0,.1,0,.2,0,.3,0,0,0,0,0,.1,0,0,0,0-.1,0-.7,0-1.1,0-1.8-.1-.1,0-.2,0-.2-.1,0,0,0-.3,0-.6,0-2.5,0-3.8,0-6.3-.9,0-1.4,0-2.3-.1Z"/>
          <path class="cls-6" d="M174.2,72c0,.2,0,.4.3.6.2.2.4.4.7.5.3.2.6.4.9.6.3.2.6.5.9.7.3.3.5.6.7,1,.2.4.3.8.3,1.2,0,.5-.2.9-.5,1.2-.3.3-.7.5-1.1.7-.5.1-.9.2-1.5.1s-1-.2-1.5-.4-.8-.5-1.1-.9c-.3-.4-.4-.9-.4-1.5,0-.1,0-.2,0-.3,0,0,.2,0,.3,0,.6,0,.9,0,1.6.1.2,0,.4.2.4.4,0,.3,0,.5.2.7.1.2.3.2.5.3.2,0,.3,0,.5-.1.2,0,.2-.2.2-.5,0-.3,0-.5-.3-.7-.2-.2-.4-.4-.7-.6-.3-.2-.6-.4-.9-.6-.3-.2-.6-.4-.9-.7-.3-.3-.5-.6-.7-.9-.2-.3-.3-.7-.3-1.2,0-.5.2-1,.5-1.3.3-.3.7-.6,1.1-.7.4-.2.9-.2,1.4-.2.5,0,1,.2,1.4.4.4.2.8.5,1.1.9.3.4.4.8.4,1.3,0,.1,0,.2,0,.2,0,0-.2,0-.3,0-.6,0-.9,0-1.6-.1-.1,0-.2,0-.3,0,0,0,0-.1,0-.3,0-.2,0-.4-.2-.5-.1-.1-.3-.2-.4-.2-.2,0-.3,0-.4.2-.1.1-.2.3-.2.6Z"/>
        </g>
        <text class="cls-7" transform="translate(106.1 84.3) scale(1.9 1)"><tspan x="0" y="0">Turning Dream Into Realty</tspan></text>
        <line class="cls-3" x1="188.7" y1="83.6" x2="209.3" y2="83.6"/>
        <line class="cls-3" x1="85.1" y1="83.1" x2="105.7" y2="83.1"/>
      </g>
    </g>
  </g>
</svg>