<svg xmlns="http://www.w3.org/2000/svg" xmlns:xlink="http://www.w3.org/1999/xlink" width="300" zoomAndPan="magnify" viewBox="0 0 224.87999 67.499998" height="90" preserveAspectRatio="xMidYMid meet" version="1.0"><defs><g/><clipPath id="6b798ec6a3"><path d="M 2.765625 10.664062 L 40.734375 10.664062 L 40.734375 50.867188 L 2.765625 50.867188 Z M 2.765625 10.664062 " clip-rule="nonzero"/></clipPath><clipPath id="442e7f78af"><path d="M 6.324219 31 L 18 31 L 18 45.445312 L 6.324219 45.445312 Z M 6.324219 31 " clip-rule="nonzero"/></clipPath><clipPath id="302a7c7ac9"><path d="M 6.324219 22 L 13 22 L 13 31 L 6.324219 31 Z M 6.324219 22 " clip-rule="nonzero"/></clipPath><clipPath id="53596808c7"><path d="M 13 17.902344 L 24 17.902344 L 24 22 L 13 22 Z M 13 17.902344 " clip-rule="nonzero"/></clipPath><clipPath id="8203f3f9fa"><path d="M 25 30 L 39.828125 30 L 39.828125 37 L 25 37 Z M 25 30 " clip-rule="nonzero"/></clipPath></defs><g fill="#00674f" fill-opacity="1"><g transform="translate(44.460459, 41.070127)"><g><path d="M 1.5625 0 L 1.5625 -20.140625 L 15.328125 -20.140625 L 15.328125 -16 L 6.390625 -16 L 6.390625 -11.25 L 13.65625 -11.25 L 13.65625 -7.578125 L 6.390625 -7.578125 L 6.390625 0 Z M 1.5625 0 "/></g></g></g><g fill="#00674f" fill-opacity="1"><g transform="translate(60.296528, 41.070127)"><g><path d="M 1.125 0 L 1.125 -20.984375 L 5.453125 -20.984375 L 5.453125 0 Z M 1.125 0 "/></g></g></g><g fill="#00674f" fill-opacity="1"><g transform="translate(66.885467, 41.070127)"><g><path d="M 6.84375 6.5 C 5.3125 6.5 3.90625 6.257812 2.625 5.78125 C 1.34375 5.300781 0.34375 4.65625 -0.375 3.84375 L 1.21875 0.703125 C 1.820312 1.367188 2.585938 1.898438 3.515625 2.296875 C 4.453125 2.703125 5.4375 2.90625 6.46875 2.90625 C 7.863281 2.90625 8.972656 2.539062 9.796875 1.8125 C 10.617188 1.09375 11.03125 0.113281 11.03125 -1.125 L 11.03125 -2.375 L 11 -2.375 C 10.550781 -1.445312 9.910156 -0.722656 9.078125 -0.203125 C 8.242188 0.304688 7.328125 0.5625 6.328125 0.5625 C 4.734375 0.5625 3.460938 0.0390625 2.515625 -1 C 1.578125 -2.050781 1.109375 -3.429688 1.109375 -5.140625 L 1.109375 -14.484375 L 5.40625 -14.484375 L 5.40625 -5.90625 C 5.40625 -5.039062 5.628906 -4.328125 6.078125 -3.765625 C 6.535156 -3.210938 7.164062 -2.9375 7.96875 -2.9375 C 8.820312 -2.9375 9.539062 -3.234375 10.125 -3.828125 C 10.707031 -4.421875 11 -5.191406 11 -6.140625 L 11 -14.484375 L 15.328125 -14.484375 L 15.328125 -0.984375 C 15.328125 0.535156 14.972656 1.859375 14.265625 2.984375 C 13.554688 4.109375 12.570312 4.972656 11.3125 5.578125 C 10.050781 6.191406 8.5625 6.5 6.84375 6.5 Z M 6.84375 6.5 "/></g></g></g><g fill="#00674f" fill-opacity="1"><g transform="translate(83.343666, 41.070127)"><g><path d="M 8.484375 0.5625 C 6.742188 0.5625 5.367188 0.0820312 4.359375 -0.875 C 3.359375 -1.832031 2.859375 -3.132812 2.859375 -4.78125 L 2.859375 -11.203125 L 0.140625 -11.203125 L 0.140625 -14.484375 L 2.859375 -14.484375 L 2.859375 -18.46875 L 7.1875 -19.40625 L 7.1875 -14.484375 L 12.921875 -14.484375 L 12.921875 -11.203125 L 7.1875 -11.203125 L 7.1875 -5.453125 C 7.1875 -4.660156 7.398438 -4.035156 7.828125 -3.578125 C 8.265625 -3.128906 8.804688 -2.90625 9.453125 -2.90625 C 10.734375 -2.90625 11.710938 -3.53125 12.390625 -4.78125 L 13.6875 -2.0625 C 13.175781 -1.25 12.441406 -0.609375 11.484375 -0.140625 C 10.535156 0.328125 9.535156 0.5625 8.484375 0.5625 Z M 8.484375 0.5625 "/></g></g></g><g fill="#00674f" fill-opacity="1"><g transform="translate(97.369898, 41.070127)"><g><path d="M 9.296875 0.5625 C 7.609375 0.5625 6.113281 0.226562 4.8125 -0.4375 C 3.507812 -1.101562 2.488281 -2.03125 1.75 -3.21875 C 1.019531 -4.40625 0.65625 -5.773438 0.65625 -7.328125 C 0.65625 -8.847656 0.976562 -10.1875 1.625 -11.34375 C 2.28125 -12.507812 3.195312 -13.414062 4.375 -14.0625 C 5.550781 -14.71875 6.910156 -15.046875 8.453125 -15.046875 C 9.960938 -15.046875 11.273438 -14.734375 12.390625 -14.109375 C 13.515625 -13.484375 14.394531 -12.617188 15.03125 -11.515625 C 15.664062 -10.421875 15.984375 -9.144531 15.984375 -7.6875 C 15.984375 -7.40625 15.960938 -7.117188 15.921875 -6.828125 C 15.878906 -6.535156 15.832031 -6.273438 15.78125 -6.046875 L 5.09375 -6.046875 C 5.21875 -5.015625 5.679688 -4.179688 6.484375 -3.546875 C 7.285156 -2.921875 8.28125 -2.609375 9.46875 -2.609375 C 10.375 -2.609375 11.222656 -2.789062 12.015625 -3.15625 C 12.804688 -3.519531 13.410156 -3.992188 13.828125 -4.578125 L 16.296875 -2.6875 C 15.703125 -1.726562 14.78125 -0.945312 13.53125 -0.34375 C 12.28125 0.257812 10.867188 0.5625 9.296875 0.5625 Z M 5.0625 -8.546875 L 11.59375 -8.546875 C 11.519531 -9.617188 11.195312 -10.457031 10.625 -11.0625 C 10.0625 -11.664062 9.335938 -11.96875 8.453125 -11.96875 C 7.546875 -11.96875 6.785156 -11.648438 6.171875 -11.015625 C 5.566406 -10.378906 5.195312 -9.554688 5.0625 -8.546875 Z M 5.0625 -8.546875 "/></g></g></g><g fill="#00674f" fill-opacity="1"><g transform="translate(114.19572, 41.070127)"><g><path d="M 1.125 0 L 1.125 -20.984375 L 5.453125 -20.984375 L 5.453125 -11.84375 L 5.484375 -11.84375 C 6.015625 -12.832031 6.710938 -13.585938 7.578125 -14.109375 C 8.441406 -14.640625 9.453125 -14.90625 10.609375 -14.90625 C 12.097656 -14.90625 13.265625 -14.46875 14.109375 -13.59375 C 14.960938 -12.726562 15.390625 -11.523438 15.390625 -9.984375 L 15.390625 0 L 11.0625 0 L 11.0625 -8.65625 C 11.0625 -9.476562 10.84375 -10.125 10.40625 -10.59375 C 9.96875 -11.070312 9.375 -11.3125 8.625 -11.3125 C 7.695312 -11.3125 6.9375 -11.007812 6.34375 -10.40625 C 5.75 -9.800781 5.453125 -9 5.453125 -8 L 5.453125 0 Z M 1.125 0 "/></g></g></g><g fill="#00674f" fill-opacity="1"><g transform="translate(130.625641, 41.070127)"><g><path d="M 5.59375 0.421875 C 4.09375 0.421875 2.851562 0.046875 1.875 -0.703125 C 0.90625 -1.460938 0.421875 -2.460938 0.421875 -3.703125 C 0.421875 -4.953125 0.957031 -6 2.03125 -6.84375 C 3.101562 -7.6875 4.726562 -8.222656 6.90625 -8.453125 L 9.703125 -8.796875 C 10.035156 -8.835938 10.304688 -8.945312 10.515625 -9.125 C 10.722656 -9.300781 10.828125 -9.539062 10.828125 -9.84375 C 10.828125 -10.46875 10.582031 -10.96875 10.09375 -11.34375 C 9.601562 -11.71875 8.972656 -11.90625 8.203125 -11.90625 C 7.335938 -11.90625 6.617188 -11.632812 6.046875 -11.09375 C 5.484375 -10.5625 5.164062 -9.9375 5.09375 -9.21875 L 0.875 -9.875 C 0.96875 -10.875 1.320312 -11.765625 1.9375 -12.546875 C 2.550781 -13.328125 3.382812 -13.9375 4.4375 -14.375 C 5.5 -14.820312 6.71875 -15.046875 8.09375 -15.046875 C 10.21875 -15.046875 11.910156 -14.519531 13.171875 -13.46875 C 14.441406 -12.425781 15.078125 -11 15.078125 -9.1875 L 15.078125 -3.59375 C 15.078125 -2.894531 15.320312 -2.546875 15.8125 -2.546875 C 16.226562 -2.546875 16.601562 -2.765625 16.9375 -3.203125 L 17.953125 -0.90625 C 17.523438 -0.46875 16.96875 -0.140625 16.28125 0.078125 C 15.59375 0.304688 14.914062 0.421875 14.25 0.421875 C 13.382812 0.421875 12.640625 0.1875 12.015625 -0.28125 C 11.398438 -0.75 11.039062 -1.316406 10.9375 -1.984375 L 10.890625 -2.484375 L 10.859375 -2.484375 C 10.390625 -1.617188 9.703125 -0.914062 8.796875 -0.375 C 7.890625 0.15625 6.820312 0.421875 5.59375 0.421875 Z M 7.234375 -2.546875 C 8.253906 -2.546875 9.09375 -2.859375 9.75 -3.484375 C 10.414062 -4.117188 10.75 -4.925781 10.75 -5.90625 L 10.75 -6.5 L 7.96875 -6.1875 C 6.769531 -6.0625 5.929688 -5.816406 5.453125 -5.453125 C 4.984375 -5.097656 4.75 -4.6875 4.75 -4.21875 C 4.75 -3.726562 4.984375 -3.328125 5.453125 -3.015625 C 5.929688 -2.703125 6.523438 -2.546875 7.234375 -2.546875 Z M 7.234375 -2.546875 "/></g></g></g><g fill="#00674f" fill-opacity="1"><g transform="translate(148.582615, 41.070127)"><g><path d="M 4.609375 0 L 0.140625 -14.484375 L 4.5 -14.484375 L 7.265625 -3.9375 L 7.296875 -3.9375 L 10.6875 -14.484375 L 14.703125 -14.484375 L 18.125 -3.8125 L 18.15625 -3.8125 L 20.953125 -14.484375 L 25.28125 -14.484375 L 20.84375 0 L 15.921875 0 L 12.71875 -10.09375 L 12.671875 -10.09375 L 9.53125 0 Z M 4.609375 0 "/></g></g></g><g fill="#00674f" fill-opacity="1"><g transform="translate(174.005166, 41.070127)"><g><path d="M 1.125 0 L 1.125 -20.984375 L 5.453125 -20.984375 L 5.453125 -9.28125 L 5.484375 -9.28125 L 10.328125 -14.484375 L 15.359375 -14.484375 L 9.921875 -8.9375 L 15.609375 0 L 10.828125 0 L 7.0625 -6.328125 L 5.453125 -4.640625 L 5.453125 0 Z M 1.125 0 "/></g></g></g><g fill="#00674f" fill-opacity="1"><g transform="translate(189.614997, 41.070127)"><g><path d="M 9.296875 0.5625 C 7.609375 0.5625 6.113281 0.226562 4.8125 -0.4375 C 3.507812 -1.101562 2.488281 -2.03125 1.75 -3.21875 C 1.019531 -4.40625 0.65625 -5.773438 0.65625 -7.328125 C 0.65625 -8.847656 0.976562 -10.1875 1.625 -11.34375 C 2.28125 -12.507812 3.195312 -13.414062 4.375 -14.0625 C 5.550781 -14.71875 6.910156 -15.046875 8.453125 -15.046875 C 9.960938 -15.046875 11.273438 -14.734375 12.390625 -14.109375 C 13.515625 -13.484375 14.394531 -12.617188 15.03125 -11.515625 C 15.664062 -10.421875 15.984375 -9.144531 15.984375 -7.6875 C 15.984375 -7.40625 15.960938 -7.117188 15.921875 -6.828125 C 15.878906 -6.535156 15.832031 -6.273438 15.78125 -6.046875 L 5.09375 -6.046875 C 5.21875 -5.015625 5.679688 -4.179688 6.484375 -3.546875 C 7.285156 -2.921875 8.28125 -2.609375 9.46875 -2.609375 C 10.375 -2.609375 11.222656 -2.789062 12.015625 -3.15625 C 12.804688 -3.519531 13.410156 -3.992188 13.828125 -4.578125 L 16.296875 -2.6875 C 15.703125 -1.726562 14.78125 -0.945312 13.53125 -0.34375 C 12.28125 0.257812 10.867188 0.5625 9.296875 0.5625 Z M 5.0625 -8.546875 L 11.59375 -8.546875 C 11.519531 -9.617188 11.195312 -10.457031 10.625 -11.0625 C 10.0625 -11.664062 9.335938 -11.96875 8.453125 -11.96875 C 7.546875 -11.96875 6.785156 -11.648438 6.171875 -11.015625 C 5.566406 -10.378906 5.195312 -9.554688 5.0625 -8.546875 Z M 5.0625 -8.546875 "/></g></g></g><g fill="#00674f" fill-opacity="1"><g transform="translate(206.440819, 41.070127)"><g><path d="M 9.328125 -14.9375 C 10.597656 -14.9375 11.632812 -14.492188 12.4375 -13.609375 C 13.25 -12.734375 13.742188 -11.488281 13.921875 -9.875 L 10.265625 -8.875 C 10.191406 -9.757812 9.960938 -10.445312 9.578125 -10.9375 C 9.191406 -11.4375 8.6875 -11.6875 8.0625 -11.6875 C 7.25 -11.6875 6.609375 -11.347656 6.140625 -10.671875 C 5.679688 -10.003906 5.453125 -9.078125 5.453125 -7.890625 L 5.453125 0 L 1.125 0 L 1.125 -14.484375 L 4.578125 -14.484375 L 5.234375 -12.125 L 5.265625 -12.125 C 5.660156 -13.019531 6.210938 -13.710938 6.921875 -14.203125 C 7.640625 -14.691406 8.441406 -14.9375 9.328125 -14.9375 Z M 9.328125 -14.9375 "/></g></g></g><g clip-path="url(#6b798ec6a3)"><path fill="#00674f" d="M 29.953125 10.910156 L 28.78125 13.054688 L 29.171875 13.269531 C 29.265625 13.320312 29.285156 13.390625 29.234375 13.484375 L 29.230469 13.492188 C 29.179688 13.582031 29.109375 13.601562 29.019531 13.554688 L 28.628906 13.34375 L 28.121094 14.269531 L 29.730469 15.148438 L 31.117188 14.550781 C 31.152344 14.535156 31.183594 14.539062 31.210938 14.570312 C 31.238281 14.597656 31.238281 14.628906 31.21875 14.664062 L 29.652344 17.527344 C 29.636719 17.558594 29.609375 17.574219 29.570312 17.566406 C 29.535156 17.5625 29.511719 17.539062 29.507812 17.503906 L 29.257812 16.011719 L 27.648438 15.132812 L 27.144531 16.058594 L 27.535156 16.273438 C 27.625 16.324219 27.648438 16.398438 27.597656 16.488281 L 27.59375 16.496094 C 27.542969 16.589844 27.46875 16.609375 27.378906 16.558594 L 26.988281 16.34375 L 25.8125 18.488281 C 25.773438 18.558594 25.714844 18.578125 25.640625 18.550781 C 25.566406 18.523438 25.535156 18.472656 25.546875 18.394531 L 25.996094 15.804688 L 25.433594 15.496094 C 25.34375 15.445312 25.324219 15.375 25.371094 15.28125 L 25.375 15.277344 C 25.425781 15.1875 25.496094 15.164062 25.589844 15.210938 L 26.054688 15.46875 L 26.246094 14.367188 L 24.726562 13.539062 C 24.609375 13.472656 24.527344 13.375 24.492188 13.246094 C 24.453125 13.113281 24.464844 12.988281 24.53125 12.871094 C 24.597656 12.75 24.695312 12.671875 24.824219 12.636719 C 24.953125 12.597656 25.078125 12.609375 25.199219 12.675781 L 26.71875 13.503906 L 27.539062 12.75 L 27.074219 12.496094 C 26.980469 12.445312 26.957031 12.375 27.007812 12.28125 L 27.011719 12.273438 C 27.0625 12.183594 27.136719 12.164062 27.226562 12.210938 L 27.789062 12.519531 L 29.726562 10.738281 C 29.785156 10.675781 29.847656 10.671875 29.917969 10.722656 C 29.984375 10.773438 30 10.835938 29.953125 10.910156 Z M 32.171875 16.050781 C 31.96875 15.914062 31.746094 15.871094 31.503906 15.917969 C 31.261719 15.96875 31.074219 16.09375 30.9375 16.300781 C 30.800781 16.503906 30.757812 16.726562 30.804688 16.96875 C 30.851562 17.210938 30.980469 17.398438 31.183594 17.535156 L 31.195312 17.542969 C 31.984375 18.066406 32.730469 18.648438 33.433594 19.285156 L 33.953125 19.773438 L 34.445312 20.289062 L 34.566406 20.417969 L 34.683594 20.550781 L 34.914062 20.816406 C 34.992188 20.910156 35.074219 20.996094 35.148438 21.089844 L 35.367188 21.367188 C 36.554688 22.878906 37.46875 24.539062 38.113281 26.347656 L 38.339844 27.027344 L 38.535156 27.714844 C 38.570312 27.828125 38.597656 27.945312 38.625 28.058594 L 38.703125 28.410156 C 38.761719 28.640625 38.804688 28.875 38.847656 29.109375 C 39.019531 30.050781 39.117188 31 39.132812 31.957031 C 39.160156 33.867188 38.902344 35.789062 38.3125 37.613281 L 38.203125 37.957031 L 38.082031 38.292969 L 37.957031 38.632812 L 37.894531 38.800781 L 37.824219 38.964844 L 37.542969 39.628906 L 37.226562 40.273438 C 36.785156 41.128906 36.285156 41.949219 35.722656 42.730469 C 35.148438 43.507812 34.523438 44.238281 33.839844 44.917969 L 33.316406 45.417969 L 32.769531 45.890625 C 32.679688 45.972656 32.585938 46.046875 32.492188 46.121094 L 32.207031 46.34375 C 32.109375 46.417969 32.019531 46.496094 31.917969 46.5625 L 31.625 46.773438 C 30.835938 47.332031 30.007812 47.824219 29.136719 48.242188 C 28.265625 48.664062 27.367188 49.015625 26.4375 49.296875 C 25.507812 49.578125 24.5625 49.78125 23.601562 49.902344 C 22.636719 50.027344 21.667969 50.078125 20.695312 50.050781 C 19.722656 50.015625 18.757812 49.902344 17.800781 49.71875 C 17.566406 49.664062 17.324219 49.625 17.089844 49.5625 L 16.386719 49.382812 C 15.921875 49.238281 15.453125 49.101562 15 48.921875 L 14.65625 48.796875 L 14.320312 48.652344 L 13.984375 48.511719 L 13.816406 48.4375 L 13.652344 48.355469 L 12.996094 48.035156 L 12.355469 47.683594 C 11.507812 47.195312 10.703125 46.644531 9.9375 46.035156 C 8.402344 44.789062 7.105469 43.332031 6.046875 41.664062 C 4.988281 39.992188 4.226562 38.199219 3.753906 36.277344 C 3.515625 35.320312 3.359375 34.351562 3.285156 33.367188 C 3.117188 31.386719 3.28125 29.429688 3.769531 27.5 L 3.863281 27.140625 C 3.894531 27.023438 3.921875 26.902344 3.960938 26.785156 L 4.183594 26.082031 C 4.265625 25.847656 4.351562 25.617188 4.4375 25.386719 L 4.5 25.214844 L 4.574219 25.042969 L 4.71875 24.703125 L 4.867188 24.359375 L 5.1875 23.695312 L 5.265625 23.527344 L 5.355469 23.367188 L 5.714844 22.71875 L 6.113281 22.078125 C 7.742188 19.515625 9.882812 17.488281 12.527344 15.992188 C 9.84375 17.445312 7.65625 19.445312 5.972656 21.988281 L 5.566406 22.617188 L 5.191406 23.265625 L 5.097656 23.425781 L 4.667969 24.265625 L 4.363281 24.953125 L 4.285156 25.121094 L 4.21875 25.296875 C 4.128906 25.527344 4.035156 25.761719 3.945312 25.996094 L 3.707031 26.707031 C 3.664062 26.828125 3.632812 26.949219 3.601562 27.070312 L 3.5 27.429688 C 2.964844 29.386719 2.765625 31.375 2.894531 33.394531 C 2.953125 34.402344 3.097656 35.398438 3.320312 36.382812 C 4.199219 40.3125 6.40625 43.945312 9.511719 46.550781 C 10.292969 47.199219 11.121094 47.789062 11.988281 48.3125 L 12.648438 48.691406 L 13.328125 49.039062 L 13.496094 49.125 L 13.671875 49.203125 L 14.015625 49.359375 L 14.363281 49.515625 L 14.71875 49.652344 C 15.191406 49.847656 15.675781 50.003906 16.15625 50.160156 L 16.890625 50.363281 C 17.136719 50.433594 17.386719 50.480469 17.632812 50.539062 C 18.632812 50.753906 19.640625 50.886719 20.660156 50.941406 C 21.679688 50.992188 22.699219 50.957031 23.714844 50.84375 C 24.730469 50.734375 25.730469 50.539062 26.714844 50.261719 C 27.703125 49.984375 28.660156 49.632812 29.59375 49.203125 C 30.523438 48.773438 31.414062 48.265625 32.257812 47.6875 L 32.578125 47.472656 C 32.6875 47.402344 32.785156 47.320312 32.890625 47.246094 L 33.195312 47.011719 C 33.300781 46.9375 33.402344 46.859375 33.5 46.777344 L 34.089844 46.28125 L 34.65625 45.761719 C 35.398438 45.046875 36.082031 44.285156 36.707031 43.46875 C 37.324219 42.640625 37.875 41.777344 38.363281 40.867188 L 38.714844 40.179688 L 39.03125 39.472656 L 39.109375 39.296875 L 39.460938 38.398438 L 39.582031 38.03125 C 40.253906 36.078125 40.574219 34.011719 40.582031 31.945312 C 40.582031 30.90625 40.496094 29.875 40.328125 28.855469 C 40.285156 28.597656 40.246094 28.34375 40.1875 28.089844 L 40.109375 27.710938 C 40.082031 27.582031 40.054688 27.457031 40.019531 27.332031 L 39.820312 26.582031 L 39.585938 25.839844 C 38.921875 23.851562 37.957031 22.023438 36.691406 20.351562 L 36.457031 20.042969 C 36.375 19.9375 36.289062 19.839844 36.207031 19.742188 L 35.957031 19.441406 L 35.832031 19.292969 L 35.699219 19.144531 L 35.171875 18.570312 L 34.613281 18.023438 C 33.851562 17.308594 33.042969 16.65625 32.183594 16.0625 Z M 32.171875 16.050781 " fill-opacity="1" fill-rule="nonzero"/></g><path fill="#00674f" d="M 37.230469 30.886719 C 37.214844 30.792969 37.195312 30.703125 37.183594 30.605469 C 37.152344 30.558594 37.121094 30.5 37.09375 30.457031 C 37.0625 30.402344 37.054688 30.339844 37.035156 30.28125 C 36.996094 30.1875 36.957031 30.089844 36.917969 30 C 36.839844 29.816406 36.761719 29.628906 36.691406 29.441406 C 36.664062 29.375 36.695312 29.285156 36.703125 29.160156 C 36.808594 29.230469 36.871094 29.308594 36.917969 29.394531 C 35.953125 25.804688 33.734375 22.71875 30.761719 20.648438 C 30.675781 20.636719 30.597656 20.621094 30.515625 20.609375 C 30.164062 20.550781 29.804688 20.523438 29.453125 20.484375 C 29.425781 20.484375 29.402344 20.492188 29.367188 20.5 C 29.367188 20.511719 29.367188 20.519531 29.367188 20.53125 C 29.503906 20.558594 29.640625 20.589844 29.777344 20.617188 C 29.777344 20.640625 29.777344 20.667969 29.777344 20.695312 C 29.679688 20.714844 29.582031 20.726562 29.492188 20.746094 C 29.367188 20.773438 29.246094 20.796875 29.128906 20.835938 C 28.996094 20.890625 28.875 20.980469 28.742188 21.011719 C 28.511719 21.058594 28.269531 21.058594 28.035156 21.105469 C 27.917969 21.125 27.8125 21.195312 27.703125 21.242188 C 27.753906 21.332031 27.800781 21.421875 27.851562 21.507812 C 27.910156 21.59375 27.976562 21.65625 28.042969 21.734375 C 28.066406 21.773438 28.085938 21.832031 28.121094 21.847656 C 28.394531 21.96875 28.664062 21.929688 28.945312 21.867188 C 29.023438 21.847656 29.140625 21.871094 29.1875 21.925781 C 29.363281 22.125 29.511719 22.339844 29.667969 22.554688 C 29.734375 22.652344 29.816406 22.6875 29.902344 22.609375 C 29.992188 22.523438 30.085938 22.53125 30.195312 22.550781 C 30.28125 22.5625 30.371094 22.542969 30.429688 22.535156 C 30.410156 22.40625 30.351562 22.269531 30.390625 22.21875 C 30.449219 22.152344 30.578125 22.152344 30.714844 22.113281 C 30.65625 22.042969 30.617188 21.996094 30.574219 21.949219 C 30.527344 21.910156 30.46875 21.886719 30.4375 21.839844 C 30.390625 21.773438 30.339844 21.683594 30.351562 21.617188 C 30.359375 21.574219 30.480469 21.546875 30.554688 21.527344 C 30.632812 21.515625 30.714844 21.527344 30.800781 21.515625 C 30.890625 21.507812 30.996094 21.515625 30.984375 21.363281 C 30.984375 21.339844 31.101562 21.28125 31.144531 21.292969 C 31.300781 21.332031 31.457031 21.390625 31.605469 21.457031 C 31.644531 21.476562 31.664062 21.535156 31.699219 21.574219 C 31.652344 21.597656 31.613281 21.636719 31.566406 21.644531 C 31.417969 21.675781 31.261719 21.703125 31.082031 21.734375 C 31.152344 21.871094 31.183594 22.035156 31.277344 22.085938 C 31.542969 22.25 31.835938 22.367188 32.167969 22.378906 C 32.296875 22.386719 32.425781 22.476562 32.558594 22.535156 C 32.550781 22.554688 32.550781 22.582031 32.542969 22.601562 C 32.484375 22.613281 32.425781 22.648438 32.375 22.632812 C 32.285156 22.613281 32.199219 22.570312 32.113281 22.53125 C 31.933594 22.445312 31.75 22.417969 31.515625 22.496094 C 31.625 22.535156 31.71875 22.550781 31.777344 22.59375 C 31.835938 22.640625 31.925781 22.75 31.90625 22.785156 C 31.847656 22.902344 31.757812 22.808594 31.683594 22.769531 C 31.664062 22.757812 31.644531 22.746094 31.625 22.730469 C 31.496094 22.652344 31.4375 22.671875 31.40625 22.828125 C 31.359375 23.050781 31.144531 23.15625 30.9375 23.082031 C 30.792969 23.03125 30.636719 23.011719 30.488281 22.992188 C 30.3125 22.972656 30.105469 23.019531 29.960938 22.941406 C 29.796875 22.863281 29.648438 22.882812 29.492188 22.847656 C 29.328125 22.816406 29.152344 22.75 29.03125 22.648438 C 28.875 22.515625 29.09375 22.484375 29.121094 22.4375 C 29.082031 22.347656 29.050781 22.277344 29.015625 22.203125 C 28.945312 22.210938 28.859375 22.210938 28.777344 22.222656 C 28.621094 22.257812 28.601562 22.335938 28.699219 22.457031 C 28.738281 22.503906 28.78125 22.542969 28.808594 22.59375 C 28.839844 22.648438 28.855469 22.710938 28.875 22.765625 C 28.816406 22.785156 28.757812 22.808594 28.699219 22.808594 C 28.554688 22.816406 28.40625 22.785156 28.277344 22.816406 C 28.121094 22.855469 27.917969 22.902344 27.800781 22.984375 C 27.773438 23.003906 27.753906 23.03125 27.734375 23.058594 C 27.683594 23.15625 27.625 23.199219 27.558594 23.230469 C 27.507812 23.257812 27.449219 23.265625 27.390625 23.277344 C 27.300781 23.296875 27.1875 23.296875 27.128906 23.355469 C 26.960938 23.519531 26.773438 23.578125 26.558594 23.5 C 26.511719 23.480469 26.464844 23.472656 26.402344 23.453125 C 26.414062 23.539062 26.425781 23.589844 26.433594 23.640625 C 26.1875 23.753906 25.933594 23.492188 25.671875 23.6875 C 25.746094 23.71875 25.800781 23.753906 25.855469 23.773438 C 25.933594 23.796875 26.011719 23.816406 26.09375 23.832031 C 26.402344 23.875 26.523438 24.167969 26.6875 24.351562 C 26.871094 24.554688 26.675781 24.898438 26.347656 24.867188 C 25.914062 24.828125 25.472656 24.800781 25.035156 24.742188 C 24.851562 24.714844 24.722656 24.773438 24.574219 24.859375 C 24.742188 25.140625 24.65625 25.394531 24.554688 25.652344 C 24.539062 25.6875 24.535156 25.75 24.546875 25.757812 C 24.691406 25.828125 24.65625 25.964844 24.664062 26.082031 C 24.683594 26.285156 24.703125 26.304688 24.90625 26.257812 C 25.113281 26.210938 25.289062 26.238281 25.398438 26.445312 C 25.464844 26.5625 25.5625 26.570312 25.6875 26.523438 C 25.828125 26.472656 25.976562 26.433594 26.121094 26.40625 C 26.246094 26.382812 26.640625 26.257812 26.726562 26.171875 C 26.816406 26.089844 26.960938 25.960938 26.941406 25.875 C 26.902344 25.710938 26.949219 25.601562 27.050781 25.515625 C 27.164062 25.433594 27.292969 25.386719 27.421875 25.328125 C 27.488281 25.300781 27.566406 25.308594 27.625 25.277344 C 27.664062 25.257812 27.703125 25.199219 27.695312 25.160156 C 27.695312 24.945312 27.820312 24.832031 28.015625 24.929688 C 28.28125 25.0625 28.503906 24.984375 28.738281 24.871094 C 28.992188 24.753906 29.335938 24.832031 29.453125 25.085938 C 29.570312 25.335938 29.785156 25.453125 30 25.550781 C 30.242188 25.660156 30.457031 25.785156 30.644531 25.960938 C 30.792969 26.09375 30.984375 26.210938 30.917969 26.480469 C 30.96875 26.402344 31.023438 26.328125 31.074219 26.25 C 31.0625 26.25 31.046875 26.246094 31.035156 26.246094 C 31.027344 26.167969 31.023438 26.089844 31.015625 26.003906 C 31.105469 26.011719 31.203125 26.011719 31.328125 26.019531 C 31.09375 25.867188 30.886719 25.691406 30.644531 25.601562 C 30.46875 25.535156 30.351562 25.464844 30.253906 25.308594 C 30.195312 25.21875 30.125 25.105469 30.03125 25.066406 C 29.851562 24.988281 29.777344 24.878906 29.804688 24.675781 C 29.832031 24.671875 29.863281 24.65625 29.890625 24.652344 C 29.972656 24.625 30.050781 24.625 30.117188 24.742188 C 30.144531 24.789062 30.226562 24.792969 30.285156 24.820312 C 30.351562 24.851562 30.410156 24.886719 30.460938 24.929688 C 30.59375 25.035156 30.703125 25.164062 30.847656 25.257812 C 31.007812 25.367188 31.203125 25.433594 31.367188 25.542969 C 31.445312 25.59375 31.515625 25.691406 31.546875 25.785156 C 31.554688 25.804688 31.5625 25.816406 31.5625 25.835938 C 31.605469 26.121094 31.789062 26.289062 31.996094 26.453125 C 31.9375 26.707031 32.035156 26.871094 32.304688 26.929688 C 32.296875 26.8125 32.289062 26.699219 32.285156 26.589844 C 32.464844 26.699219 32.464844 26.699219 32.511719 26.636719 C 32.425781 26.523438 32.34375 26.414062 32.257812 26.304688 C 32.21875 26.25 32.171875 26.191406 32.132812 26.140625 C 32.148438 26.128906 32.152344 26.109375 32.167969 26.09375 C 32.230469 26.113281 32.296875 26.132812 32.367188 26.152344 C 32.394531 26.101562 32.433594 26.070312 32.472656 26.050781 C 32.542969 26.011719 32.628906 26.023438 32.707031 26.074219 C 32.894531 26.191406 33.097656 26.167969 33.285156 26.160156 C 33.234375 26.054688 33.117188 25.925781 33.148438 25.863281 C 33.246094 25.660156 33.226562 25.394531 33.457031 25.257812 C 33.515625 25.222656 33.597656 25.152344 33.636719 25.171875 C 33.75 25.230469 33.898438 25.300781 33.9375 25.398438 C 34.023438 25.613281 34.171875 25.71875 34.378906 25.640625 C 34.332031 25.589844 34.28125 25.535156 34.238281 25.484375 C 34.308594 25.457031 34.378906 25.417969 34.449219 25.40625 C 34.523438 25.394531 34.601562 25.394531 34.71875 25.386719 C 34.699219 25.523438 34.679688 25.628906 34.652344 25.777344 C 34.703125 25.824219 34.796875 25.902344 34.878906 25.984375 C 35.042969 26.148438 35.207031 26.304688 35.355469 26.472656 C 35.386719 26.503906 35.40625 26.609375 35.382812 26.628906 C 35.34375 26.667969 35.257812 26.6875 35.210938 26.675781 C 35.042969 26.628906 34.828125 26.601562 34.722656 26.492188 C 34.378906 26.113281 33.929688 26.316406 33.539062 26.21875 C 33.535156 26.21875 33.527344 26.21875 33.519531 26.21875 C 33.4375 26.367188 33.320312 26.265625 33.214844 26.257812 C 33.105469 26.25 32.992188 26.238281 32.882812 26.226562 C 32.875 26.238281 32.871094 26.25 32.863281 26.265625 C 32.941406 26.316406 32.972656 26.367188 32.96875 26.425781 C 32.960938 26.464844 32.941406 26.503906 32.910156 26.539062 C 33.109375 26.757812 33.226562 27.046875 33.519531 27.175781 C 33.613281 27.214844 33.664062 27.285156 33.761719 27.183594 C 33.78125 27.15625 33.851562 27.15625 33.90625 27.164062 C 33.917969 27.164062 33.9375 27.167969 33.945312 27.175781 C 34.023438 27.214844 34.074219 27.292969 34.152344 27.339844 C 34.21875 27.378906 34.332031 27.429688 34.371094 27.398438 C 34.507812 27.285156 34.640625 27.359375 34.761719 27.363281 C 34.777344 27.46875 34.789062 27.558594 34.800781 27.652344 C 34.816406 27.742188 34.839844 27.839844 34.828125 27.925781 C 34.828125 27.929688 34.828125 27.9375 34.828125 27.945312 C 34.808594 28.066406 34.761719 28.183594 34.738281 28.308594 C 34.730469 28.328125 34.730469 28.347656 34.722656 28.359375 C 34.664062 28.6875 34.625 28.710938 34.3125 28.59375 C 34.210938 28.554688 34.105469 28.53125 33.996094 28.515625 C 33.851562 28.496094 33.703125 28.53125 33.574219 28.484375 C 33.285156 28.394531 33.011719 28.277344 32.738281 28.160156 C 32.679688 28.132812 32.621094 28.082031 32.582031 28.023438 C 32.464844 27.878906 32.328125 27.847656 32.132812 27.910156 C 31.976562 27.964844 31.992188 28.085938 31.992188 28.21875 C 31.992188 28.398438 31.914062 28.476562 31.738281 28.425781 C 31.566406 28.375 31.398438 28.308594 31.257812 28.210938 C 30.890625 27.96875 30.527344 27.75 30.070312 27.714844 C 29.765625 27.691406 29.617188 27.378906 29.714844 27.085938 C 29.734375 27.03125 29.707031 26.96875 29.695312 26.910156 C 29.675781 26.824219 29.648438 26.738281 29.621094 26.640625 C 29.601562 26.636719 29.542969 26.617188 29.503906 26.578125 C 29.402344 26.464844 29.296875 26.472656 29.171875 26.53125 C 29.132812 26.550781 29.074219 26.578125 29.042969 26.5625 C 28.828125 26.492188 28.621094 26.492188 28.414062 26.582031 C 28.386719 26.597656 28.335938 26.5625 28.296875 26.558594 C 28.152344 26.53125 28.003906 26.472656 27.867188 26.5 C 27.460938 26.570312 27.058594 26.660156 26.675781 26.785156 C 26.316406 26.902344 25.984375 26.914062 25.660156 26.714844 C 25.5625 26.65625 25.515625 26.679688 25.464844 26.773438 C 25.417969 26.855469 25.378906 26.960938 25.308594 27.019531 C 25.113281 27.175781 24.898438 27.3125 24.691406 27.449219 C 24.460938 27.59375 24.339844 27.789062 24.351562 28.0625 C 24.351562 28.121094 24.34375 28.199219 24.304688 28.242188 C 24.15625 28.4375 24 28.632812 23.746094 28.710938 C 23.425781 28.808594 23.210938 29.023438 23.0625 29.308594 C 22.972656 29.480469 22.894531 29.660156 22.808594 29.832031 C 22.746094 29.953125 22.679688 30.078125 22.59375 30.1875 C 22.503906 30.304688 22.445312 30.429688 22.484375 30.578125 C 22.535156 30.78125 22.589844 30.988281 22.648438 31.191406 C 22.652344 31.21875 22.660156 31.242188 22.667969 31.261719 C 22.699219 31.398438 22.699219 31.53125 22.679688 31.652344 C 22.648438 31.859375 22.550781 32.054688 22.398438 32.238281 C 22.320312 32.328125 22.347656 32.382812 22.394531 32.464844 C 22.464844 32.601562 22.542969 32.746094 22.570312 32.894531 C 22.601562 33.078125 22.691406 33.203125 22.816406 33.324219 C 23.101562 33.605469 23.464844 33.820312 23.628906 34.21875 C 23.726562 34.453125 23.914062 34.585938 24.136719 34.710938 C 24.320312 34.808594 24.515625 34.933594 24.636719 35.089844 C 24.8125 35.316406 25.023438 35.328125 25.261719 35.285156 C 25.355469 35.265625 25.445312 35.246094 25.535156 35.210938 C 25.839844 35.101562 26.140625 35.074219 26.445312 35.207031 C 26.582031 35.265625 26.707031 35.226562 26.84375 35.152344 C 27.285156 34.925781 27.761719 34.757812 28.261719 34.703125 C 28.472656 34.683594 28.550781 34.769531 28.5625 34.976562 C 28.5625 35.015625 28.570312 35.0625 28.5625 35.101562 C 28.554688 35.230469 28.621094 35.285156 28.742188 35.269531 C 28.90625 35.25 29.070312 35.238281 29.230469 35.230469 C 29.414062 35.226562 29.558594 35.308594 29.679688 35.433594 C 29.796875 35.550781 29.753906 35.660156 29.726562 35.785156 C 29.707031 35.875 29.707031 35.972656 29.6875 36.066406 C 29.667969 36.148438 29.65625 36.242188 29.601562 36.304688 C 29.445312 36.507812 29.445312 36.703125 29.570312 36.910156 C 29.636719 37.023438 29.699219 37.140625 29.785156 37.238281 C 30.03125 37.507812 30.226562 37.789062 30.265625 38.1875 C 30.300781 38.523438 30.417969 38.863281 30.488281 39.203125 C 30.5 39.28125 30.5 39.378906 30.46875 39.441406 C 30.378906 39.644531 30.253906 39.832031 30.15625 40.027344 C 30.066406 40.222656 29.972656 40.425781 29.929688 40.625 C 29.851562 41.035156 30.027344 41.394531 30.253906 41.707031 C 30.378906 41.875 30.382812 42.039062 30.363281 42.234375 C 30.332031 42.519531 30.292969 42.832031 30.507812 43.0625 C 30.695312 43.261719 30.761719 43.503906 30.859375 43.742188 C 30.878906 43.796875 30.859375 43.867188 30.867188 43.933594 C 30.871094 44.03125 30.851562 44.179688 30.90625 44.210938 C 30.976562 44.257812 31.144531 44.265625 31.203125 44.207031 C 31.507812 43.917969 31.9375 43.9375 32.285156 43.730469 C 32.480469 43.613281 32.667969 43.515625 32.816406 43.347656 C 33.027344 43.121094 33.246094 42.898438 33.449219 42.65625 C 33.566406 42.515625 33.730469 42.34375 33.730469 42.1875 C 33.730469 41.910156 33.867188 41.792969 34.082031 41.679688 C 34.289062 41.570312 34.445312 41.121094 34.347656 40.898438 C 34.28125 40.761719 34.320312 40.660156 34.410156 40.5625 C 34.664062 40.292969 34.917969 40.035156 35.179688 39.773438 C 35.324219 39.632812 35.421875 39.46875 35.441406 39.253906 C 35.464844 39.007812 35.519531 38.757812 35.558594 38.511719 C 35.5625 38.445312 35.570312 38.367188 35.550781 38.308594 C 35.421875 37.820312 35.316406 37.339844 35.617188 36.871094 C 35.636719 36.839844 35.640625 36.792969 35.660156 36.753906 C 35.738281 36.632812 35.816406 36.515625 35.902344 36.390625 C 35.972656 36.285156 36.039062 36.175781 36.097656 36.058594 C 36.136719 35.980469 36.175781 35.894531 36.203125 35.804688 C 36.203125 35.796875 36.207031 35.796875 36.214844 35.792969 C 36.742188 35.25 36.96875 34.574219 37.132812 33.859375 C 37.171875 33.683594 37.171875 33.496094 37.191406 33.300781 C 36.945312 33.410156 36.734375 33.507812 36.519531 33.597656 C 36.496094 33.613281 36.429688 33.59375 36.417969 33.574219 C 36.363281 33.460938 36.320312 33.351562 36.273438 33.242188 C 36.242188 33.164062 36.222656 33.078125 36.175781 33.011719 C 36.027344 32.785156 35.863281 32.5625 35.707031 32.34375 C 35.679688 32.304688 35.675781 32.246094 35.65625 32.191406 C 35.582031 32.003906 35.53125 31.800781 35.441406 31.628906 C 35.34375 31.425781 35.246094 31.230469 35.257812 30.996094 C 35.265625 30.9375 35.25 30.878906 35.226562 30.828125 C 35.128906 30.617188 35.023438 30.421875 34.925781 30.214844 C 34.75 29.835938 34.574219 29.460938 34.398438 29.082031 C 34.371094 29.023438 34.359375 28.957031 34.339844 28.894531 C 34.351562 28.886719 34.371094 28.882812 34.386719 28.875 C 34.484375 29.023438 34.582031 29.171875 34.691406 29.335938 C 34.730469 29.265625 34.757812 29.21875 34.789062 29.148438 C 34.816406 29.21875 34.835938 29.265625 34.855469 29.304688 C 34.996094 29.597656 35.148438 29.890625 35.289062 30.183594 C 35.304688 30.203125 35.316406 30.222656 35.335938 30.234375 C 35.523438 30.363281 35.582031 30.566406 35.621094 30.761719 C 35.660156 30.96875 35.660156 31.183594 35.863281 31.320312 C 35.890625 31.339844 35.890625 31.398438 35.910156 31.433594 C 35.988281 31.59375 36.066406 31.757812 36.136719 31.925781 C 36.183594 32.035156 36.222656 32.152344 36.242188 32.269531 C 36.273438 32.480469 36.285156 32.6875 36.320312 32.894531 C 36.324219 32.949219 36.390625 33 36.4375 33.027344 C 36.460938 33.039062 36.515625 32.972656 36.558594 32.949219 C 36.632812 32.910156 36.695312 32.871094 36.769531 32.824219 C 36.808594 32.796875 36.859375 32.785156 36.878906 32.753906 C 36.984375 32.550781 37.289062 32.53125 37.308594 32.257812 C 37.308594 32.25 37.320312 32.238281 37.332031 32.230469 C 37.339844 32.230469 37.339844 32.230469 37.339844 32.230469 C 37.359375 31.796875 37.300781 31.339844 37.230469 30.886719 Z M 37.230469 30.886719 " fill-opacity="1" fill-rule="nonzero"/><g clip-path="url(#442e7f78af)"><path fill="#00674f" d="M 17.175781 37.90625 C 16.863281 37.933594 16.660156 37.757812 16.472656 37.566406 C 16.261719 37.367188 16.023438 37.289062 15.734375 37.320312 C 15.617188 37.335938 15.488281 37.300781 15.382812 37.257812 C 15.261719 37.203125 15.15625 37.171875 15.03125 37.242188 C 15.007812 37.257812 14.96875 37.257812 14.953125 37.257812 C 14.910156 37.160156 14.882812 37.046875 14.816406 37.003906 C 14.640625 36.890625 14.453125 36.8125 14.265625 36.730469 C 14.121094 36.664062 14.019531 36.710938 13.933594 36.839844 C 13.875 36.925781 13.808594 37.003906 13.738281 37.105469 C 13.582031 36.988281 13.457031 36.871094 13.308594 36.792969 C 13.179688 36.722656 13.152344 36.632812 13.210938 36.519531 C 13.28125 36.371094 13.359375 36.226562 13.453125 36.097656 C 13.53125 35.988281 13.582031 35.921875 13.453125 35.8125 C 13.375 35.746094 13.355469 35.617188 13.308594 35.511719 C 13.277344 35.441406 13.269531 35.355469 13.222656 35.304688 C 12.96875 35.042969 12.671875 34.886719 12.300781 34.859375 C 12.109375 34.847656 11.910156 34.796875 11.753906 34.699219 C 11.597656 34.601562 11.492188 34.417969 11.351562 34.289062 C 11.226562 34.171875 10.972656 34.191406 10.960938 33.945312 C 10.960938 33.9375 10.953125 33.9375 10.945312 33.929688 C 10.828125 33.847656 10.707031 33.753906 10.582031 33.675781 C 10.550781 33.65625 10.492188 33.644531 10.464844 33.664062 C 10.269531 33.820312 10.074219 33.789062 9.867188 33.695312 C 9.859375 33.695312 9.851562 33.695312 9.847656 33.695312 C 9.722656 33.703125 9.617188 33.691406 9.527344 33.566406 C 9.417969 33.417969 9.253906 33.476562 9.109375 33.546875 C 8.972656 33.617188 9.070312 33.714844 9.085938 33.808594 C 9.089844 33.871094 9.066406 33.945312 9.058594 34.015625 C 8.792969 33.78125 9.007812 33.539062 9.007812 33.320312 C 8.824219 33.410156 8.65625 33.480469 8.492188 33.574219 C 8.429688 33.613281 8.371094 33.683594 8.332031 33.753906 C 8.257812 33.886719 8.199219 34.027344 8.117188 34.203125 C 8.058594 34.113281 8.023438 34.074219 8 34.035156 C 7.875 33.800781 7.875 33.800781 7.652344 33.925781 C 7.609375 33.949219 7.511719 33.964844 7.496094 33.945312 C 7.386719 33.78125 7.203125 33.664062 7.21875 33.4375 C 7.230469 33.207031 7.242188 32.980469 7.25 32.753906 C 7.261719 32.425781 7.199219 32.367188 6.886719 32.441406 C 6.859375 32.445312 6.828125 32.460938 6.800781 32.460938 C 6.691406 32.472656 6.664062 32.421875 6.683594 32.324219 C 6.742188 32.0625 6.800781 31.800781 6.859375 31.542969 C 6.878906 31.457031 6.90625 31.378906 6.925781 31.296875 C 6.671875 31.242188 6.636719 31.261719 6.578125 31.484375 C 6.554688 31.574219 6.535156 31.660156 6.5 31.742188 C 6.5 31.75 6.496094 31.757812 6.496094 31.769531 C 6.480469 31.808594 6.449219 31.847656 6.417969 31.859375 C 6.402344 31.867188 6.398438 31.875 6.382812 31.875 C 6.363281 32.070312 6.351562 32.257812 6.339844 32.453125 C 6.332031 32.523438 6.332031 32.589844 6.324219 32.660156 C 6.359375 32.777344 6.402344 32.875 6.535156 32.929688 C 6.75 33.011719 6.898438 33.167969 6.964844 33.390625 C 7.023438 33.585938 7.082031 33.773438 7.242188 33.910156 C 7.386719 34.027344 7.503906 34.179688 7.628906 34.308594 C 7.671875 34.199219 7.691406 34.09375 7.75 34.015625 C 7.816406 33.929688 7.886719 33.949219 7.902344 34.066406 C 7.925781 34.359375 8.101562 34.621094 8.078125 34.925781 C 8.0625 35.09375 8.148438 35.265625 7.964844 35.421875 C 7.855469 35.519531 7.789062 35.695312 7.75 35.84375 C 7.710938 35.988281 7.730469 36.144531 7.730469 36.300781 C 7.726562 36.449219 7.738281 36.59375 7.902344 36.671875 C 7.882812 36.710938 7.875 36.75 7.855469 36.773438 C 7.691406 36.996094 7.726562 37.222656 7.882812 37.414062 C 8.136719 37.738281 8.265625 38.113281 8.394531 38.492188 C 8.441406 38.636719 8.492188 38.777344 8.550781 38.914062 C 8.566406 38.949219 8.578125 38.980469 8.589844 39.011719 C 8.6875 39.234375 8.796875 39.410156 8.972656 39.554688 C 9.148438 39.695312 9.34375 39.828125 9.5 39.984375 C 9.613281 40.09375 9.730469 40.242188 9.761719 40.390625 C 9.859375 40.816406 9.925781 41.246094 9.984375 41.675781 C 10.042969 42.125 10.046875 42.574219 10.191406 43.007812 C 10.25 43.191406 10.210938 43.410156 10.222656 43.613281 C 10.230469 43.671875 10.238281 43.730469 10.242188 43.789062 C 10.757812 44.367188 11.316406 44.902344 11.910156 45.402344 C 11.941406 45.214844 11.738281 45.089844 11.734375 44.902344 C 11.882812 44.96875 12 45.011719 12.136719 45.070312 C 12.164062 44.773438 12.15625 44.777344 12.4375 44.855469 C 12.554688 44.890625 12.683594 44.914062 12.800781 44.902344 C 12.878906 44.894531 12.976562 44.824219 13.015625 44.753906 C 13.042969 44.714844 12.976562 44.609375 12.929688 44.550781 C 12.828125 44.40625 12.710938 44.277344 12.59375 44.140625 C 12.605469 44.128906 12.613281 44.113281 12.625 44.09375 C 12.683594 44.121094 12.742188 44.140625 12.792969 44.167969 C 12.9375 44.230469 13.082031 44.304688 13.230469 44.355469 C 13.417969 44.425781 13.511719 44.363281 13.621094 44.199219 C 13.765625 43.992188 13.933594 43.789062 14.101562 43.605469 C 14.277344 43.425781 14.492188 43.269531 14.351562 42.964844 C 14.335938 42.929688 14.34375 42.890625 14.335938 42.859375 C 14.304688 42.75 14.355469 42.703125 14.445312 42.65625 C 14.640625 42.554688 14.84375 42.457031 15.058594 42.371094 C 15.261719 42.285156 15.441406 42.246094 15.65625 42.253906 C 15.769531 42.253906 15.949219 42.183594 15.984375 42.097656 C 16.09375 41.8125 16.300781 41.578125 16.378906 41.25 C 16.472656 40.878906 16.53125 40.542969 16.433594 40.179688 C 16.414062 40.113281 16.4375 39.988281 16.492188 39.957031 C 16.75 39.78125 16.933594 39.546875 17.101562 39.300781 C 17.15625 39.226562 17.199219 39.15625 17.25 39.085938 C 17.269531 39.050781 17.296875 39.019531 17.316406 38.988281 C 17.453125 38.753906 17.5 38.484375 17.453125 38.210938 C 17.433594 38.023438 17.328125 37.894531 17.175781 37.90625 Z M 17.175781 37.90625 " fill-opacity="1" fill-rule="nonzero"/></g><g clip-path="url(#302a7c7ac9)"><path fill="#00674f" d="M 7.300781 29.308594 C 7.375 29.285156 7.457031 29.230469 7.492188 29.25 C 7.535156 29.285156 7.550781 29.367188 7.5625 29.433594 C 7.574219 29.480469 7.554688 29.53125 7.5625 29.578125 C 7.601562 29.785156 7.648438 30 7.691406 30.207031 C 7.710938 30.207031 7.738281 30.203125 7.757812 30.203125 C 7.855469 30.070312 7.863281 29.929688 7.84375 29.773438 C 7.816406 29.570312 7.765625 29.367188 7.769531 29.167969 C 7.777344 28.855469 7.933594 28.613281 8.175781 28.417969 C 8.332031 28.289062 8.507812 28.152344 8.585938 27.976562 C 8.675781 27.78125 8.667969 27.535156 8.707031 27.3125 C 8.707031 27.300781 8.722656 27.285156 8.734375 27.261719 C 8.757812 27.292969 8.785156 27.324219 8.804688 27.34375 C 8.902344 27.167969 9.007812 27 9.105469 26.824219 C 9.105469 26.816406 9.109375 26.8125 9.109375 26.8125 C 9.109375 26.578125 9.3125 26.523438 9.460938 26.425781 C 9.527344 26.386719 9.605469 26.363281 9.65625 26.316406 C 9.703125 26.277344 9.730469 26.210938 9.753906 26.160156 C 9.800781 26.070312 9.8125 25.953125 9.886719 25.886719 C 10.074219 25.699219 10.359375 25.640625 10.53125 25.398438 C 10.613281 25.28125 10.824219 25.25 10.980469 25.179688 C 10.964844 25.242188 10.921875 25.300781 10.867188 25.347656 C 10.765625 25.4375 10.613281 25.503906 10.699219 25.691406 C 11 25.492188 11.285156 25.296875 11.570312 25.101562 C 11.292969 25.105469 11.042969 25.085938 10.921875 24.792969 C 11 24.722656 11.078125 24.652344 11.15625 24.578125 C 10.789062 24.5 10.5625 24.734375 10.300781 24.886719 C 10.335938 24.8125 10.375 24.769531 10.425781 24.730469 C 10.511719 24.65625 10.59375 24.578125 10.679688 24.515625 C 10.785156 24.429688 10.882812 24.320312 11.003906 24.261719 C 11.128906 24.203125 11.273438 24.1875 11.410156 24.148438 C 11.648438 24.089844 11.902344 24.050781 12.136719 23.960938 C 12.363281 23.871094 12.574219 23.71875 12.792969 23.601562 C 13.027344 23.480469 13.042969 23.386719 12.851562 23.207031 C 12.644531 23.285156 12.4375 23.367188 12.234375 23.445312 C 12.226562 23.425781 12.214844 23.40625 12.207031 23.386719 C 12.363281 23.308594 12.519531 23.230469 12.644531 23.175781 C 12.4375 23.121094 12.214844 23.070312 11.980469 23.011719 C 12.027344 22.894531 12.097656 22.785156 11.921875 22.75 C 11.902344 22.75 11.894531 22.699219 11.882812 22.679688 C 11.824219 22.613281 11.773438 22.535156 11.699219 22.503906 C 11.667969 22.492188 11.589844 22.5625 11.539062 22.609375 C 11.390625 22.738281 11.253906 22.882812 11.089844 22.992188 C 11.042969 23.023438 10.933594 23 10.867188 22.964844 C 10.84375 22.953125 10.847656 22.863281 10.84375 22.804688 C 10.84375 22.769531 10.84375 22.738281 10.847656 22.699219 C 10.789062 22.707031 10.738281 22.730469 10.699219 22.71875 C 10.679688 22.710938 10.660156 22.710938 10.640625 22.707031 C 10.144531 23.226562 9.683594 23.777344 9.261719 24.363281 C 9.246094 24.390625 9.242188 24.417969 9.226562 24.441406 C 9.167969 24.574219 9.136719 24.722656 9.058594 24.839844 C 9.011719 24.910156 8.949219 24.929688 8.890625 24.90625 C 8.683594 25.222656 8.480469 25.550781 8.296875 25.882812 C 8.34375 25.882812 8.394531 25.882812 8.441406 25.886719 C 8.492188 25.894531 8.539062 25.921875 8.589844 25.941406 C 8.566406 26 8.550781 26.058594 8.511719 26.101562 C 8.460938 26.167969 8.390625 26.226562 8.335938 26.289062 C 8.296875 26.34375 8.265625 26.402344 8.226562 26.460938 C 8.207031 26.453125 8.179688 26.453125 8.160156 26.445312 C 8.15625 26.355469 8.15625 26.265625 8.148438 26.152344 L 6.800781 29.5625 C 6.808594 29.5625 6.8125 29.5625 6.820312 29.5625 C 6.917969 29.285156 7.101562 29.199219 7.300781 29.308594 Z M 7.300781 29.308594 " fill-opacity="1" fill-rule="nonzero"/></g><path fill="#00674f" d="M 35.875 39.886719 C 35.863281 40.105469 35.804688 40.308594 35.679688 40.476562 C 35.589844 40.59375 35.570312 40.730469 35.558594 40.859375 C 35.882812 40.257812 36.175781 39.632812 36.421875 38.980469 C 36.324219 39.144531 36.207031 39.300781 36.070312 39.4375 C 35.960938 39.539062 35.890625 39.730469 35.875 39.886719 Z M 35.875 39.886719 " fill-opacity="1" fill-rule="nonzero"/><path fill="#00674f" d="M 23.21875 20.277344 C 23.089844 20.195312 22.957031 20.109375 22.816406 20.082031 C 22.652344 20.050781 22.484375 20.070312 22.316406 20.078125 C 22.183594 20.082031 22.054688 20.097656 21.917969 20.101562 C 21.714844 20.117188 21.515625 20.136719 21.304688 20.148438 C 21.246094 20.15625 21.167969 20.121094 21.117188 20.082031 C 21.039062 20.023438 20.972656 20.023438 20.894531 20.070312 C 20.875 20.082031 20.851562 20.097656 20.832031 20.117188 C 20.933594 20.128906 21.011719 20.136719 21.089844 20.148438 C 21.097656 20.148438 21.105469 20.148438 21.109375 20.148438 C 21.109375 20.148438 21.109375 20.15625 21.109375 20.15625 C 21.085938 20.234375 21.066406 20.292969 21.039062 20.371094 C 21.363281 20.453125 21.683594 20.503906 21.996094 20.503906 C 22.230469 20.503906 22.464844 20.484375 22.691406 20.441406 C 22.882812 20.386719 23.050781 20.34375 23.21875 20.277344 Z M 23.21875 20.277344 " fill-opacity="1" fill-rule="nonzero"/><path fill="#00674f" d="M 11.480469 22.203125 C 11.414062 22.191406 11.351562 22.179688 11.277344 22.164062 C 11.472656 22.0625 11.71875 22.132812 11.890625 21.867188 C 11.777344 21.871094 11.707031 21.886719 11.640625 21.871094 C 11.597656 21.867188 11.550781 21.839844 11.507812 21.820312 C 11.324219 21.984375 11.148438 22.152344 10.972656 22.320312 C 11.140625 22.289062 11.3125 22.257812 11.480469 22.222656 C 11.480469 22.222656 11.480469 22.210938 11.480469 22.203125 Z M 11.480469 22.203125 " fill-opacity="1" fill-rule="nonzero"/><path fill="#00674f" d="M 12.105469 21.632812 C 12.234375 21.558594 12.351562 21.449219 12.46875 21.359375 C 12.3125 21.371094 12.15625 21.382812 12 21.398438 C 11.894531 21.480469 11.792969 21.574219 11.6875 21.664062 C 11.734375 21.664062 11.773438 21.664062 11.816406 21.65625 C 11.914062 21.652344 12.027344 21.671875 12.105469 21.632812 Z M 12.105469 21.632812 " fill-opacity="1" fill-rule="nonzero"/><path fill="#00674f" d="M 24.203125 22.804688 C 24.285156 22.835938 24.378906 22.882812 24.460938 22.902344 C 24.507812 22.914062 24.566406 22.886719 24.617188 22.875 C 24.75 22.847656 24.878906 22.808594 25.007812 22.796875 C 25.113281 22.785156 25.164062 22.765625 25.140625 22.648438 C 25.105469 22.523438 25.101562 22.40625 25.277344 22.375 C 25.132812 22.132812 24.722656 22.101562 24.585938 22.289062 C 24.558594 22.328125 24.488281 22.339844 24.4375 22.355469 C 24.382812 22.367188 24.332031 22.367188 24.242188 22.378906 C 24.324219 22.453125 24.378906 22.492188 24.4375 22.542969 C 24.402344 22.582031 24.378906 22.601562 24.359375 22.628906 C 24.304688 22.691406 24.253906 22.746094 24.203125 22.804688 Z M 24.203125 22.804688 " fill-opacity="1" fill-rule="nonzero"/><path fill="#00674f" d="M 12.695312 23.980469 C 12.789062 23.863281 12.867188 23.765625 12.9375 23.667969 C 12.917969 23.65625 12.90625 23.640625 12.886719 23.628906 C 12.597656 23.882812 12.410156 24.214844 12.175781 24.519531 C 12.234375 24.519531 12.28125 24.5 12.324219 24.496094 C 12.515625 24.476562 12.703125 24.457031 12.890625 24.441406 C 12.9375 24.4375 12.988281 24.449219 13.035156 24.429688 C 13.082031 24.410156 13.113281 24.371094 13.160156 24.324219 C 13.183594 24.371094 13.191406 24.410156 13.21875 24.429688 C 13.257812 24.460938 13.300781 24.496094 13.347656 24.496094 C 13.378906 24.496094 13.433594 24.4375 13.425781 24.402344 C 13.425781 24.371094 13.367188 24.34375 13.339844 24.3125 C 13.320312 24.285156 13.296875 24.246094 13.289062 24.214844 C 13.28125 24.164062 13.289062 24.105469 13.289062 24.050781 C 13.074219 24.027344 12.898438 24.007812 12.695312 23.980469 Z M 12.695312 23.980469 " fill-opacity="1" fill-rule="nonzero"/><path fill="#00674f" d="M 8.429688 31.308594 C 8.480469 31.300781 8.527344 31.257812 8.570312 31.230469 C 8.539062 31.191406 8.519531 31.140625 8.480469 31.113281 C 8.265625 30.988281 8.050781 30.867188 7.828125 30.753906 C 7.589844 30.632812 7.417969 30.691406 7.296875 30.949219 C 7.511719 30.664062 7.710938 30.929688 7.90625 30.96875 C 8.019531 30.988281 8.101562 31.160156 8.199219 31.261719 C 8.195312 31.277344 8.179688 31.296875 8.175781 31.308594 C 8.257812 31.316406 8.34375 31.320312 8.429688 31.308594 Z M 8.429688 31.308594 " fill-opacity="1" fill-rule="nonzero"/><path fill="#00674f" d="M 8.65625 31.632812 C 8.792969 31.648438 8.941406 31.660156 9.097656 31.679688 C 9.226562 31.632812 9.382812 31.582031 9.535156 31.535156 C 9.382812 31.222656 9.109375 31.277344 8.84375 31.308594 C 8.855469 31.394531 8.902344 31.496094 8.863281 31.5625 C 8.835938 31.609375 8.722656 31.613281 8.65625 31.632812 Z M 8.65625 31.632812 " fill-opacity="1" fill-rule="nonzero"/><path fill="#00674f" d="M 13.4375 36.460938 C 13.398438 36.507812 13.375 36.625 13.398438 36.644531 C 13.492188 36.730469 13.609375 36.832031 13.71875 36.839844 C 13.847656 36.847656 13.882812 36.703125 13.886719 36.558594 C 13.828125 36.554688 13.777344 36.554688 13.738281 36.535156 C 13.691406 36.515625 13.652344 36.46875 13.601562 36.457031 C 13.550781 36.449219 13.457031 36.4375 13.4375 36.460938 Z M 13.4375 36.460938 " fill-opacity="1" fill-rule="nonzero"/><path fill="#00674f" d="M 29.121094 25.921875 C 29.132812 25.972656 29.199219 26.003906 29.238281 26.050781 C 29.277344 26.003906 29.347656 25.960938 29.347656 25.914062 C 29.34375 25.808594 29.308594 25.707031 29.257812 25.609375 C 29.246094 25.582031 29.140625 25.601562 29.101562 25.601562 C 29.109375 25.730469 29.101562 25.828125 29.121094 25.921875 Z M 29.121094 25.921875 " fill-opacity="1" fill-rule="nonzero"/><path fill="#00674f" d="M 30.144531 26.441406 C 30.144531 26.445312 30.144531 26.460938 30.136719 26.464844 C 30.300781 26.5625 30.460938 26.660156 30.636719 26.765625 C 30.636719 26.648438 30.636719 26.570312 30.636719 26.503906 C 30.460938 26.480469 30.300781 26.460938 30.144531 26.441406 Z M 30.144531 26.441406 " fill-opacity="1" fill-rule="nonzero"/><path fill="#00674f" d="M 14.5625 20.363281 C 14.34375 20.332031 14.148438 20.355469 14.003906 20.558594 C 14.121094 20.539062 14.238281 20.503906 14.351562 20.464844 C 14.421875 20.441406 14.492188 20.394531 14.5625 20.363281 Z M 14.5625 20.363281 " fill-opacity="1" fill-rule="nonzero"/><path fill="#00674f" d="M 11.679688 25.027344 C 11.734375 25.007812 11.792969 24.988281 11.851562 24.964844 C 11.832031 24.90625 11.8125 24.867188 11.785156 24.792969 C 11.734375 24.867188 11.6875 24.925781 11.648438 24.984375 C 11.660156 25.003906 11.675781 25.015625 11.679688 25.027344 Z M 11.679688 25.027344 " fill-opacity="1" fill-rule="nonzero"/><path fill="#00674f" d="M 29.246094 25.160156 C 29.015625 25.257812 29.132812 25.335938 29.210938 25.417969 C 29.226562 25.339844 29.230469 25.269531 29.246094 25.160156 Z M 29.246094 25.160156 " fill-opacity="1" fill-rule="nonzero"/><path fill="#00674f" d="M 25.359375 22.027344 C 25.472656 22.027344 25.515625 22.0625 25.523438 22.125 C 25.53125 22.171875 25.503906 22.238281 25.464844 22.320312 C 25.710938 22.203125 25.847656 22.359375 25.996094 22.453125 C 26.023438 22.464844 26.054688 22.511719 26.050781 22.523438 C 26.035156 22.554688 26.003906 22.59375 25.964844 22.601562 C 25.886719 22.628906 25.808594 22.632812 25.707031 22.652344 C 25.808594 22.835938 25.660156 22.847656 25.535156 22.90625 C 25.730469 22.945312 25.894531 22.980469 26.0625 23.011719 C 26.0625 23.019531 26.070312 23.03125 26.070312 23.039062 C 25.886719 23.089844 25.710938 23.140625 25.515625 23.199219 L 27.117188 23.199219 C 27.058594 23.140625 27.03125 23.109375 27.019531 23.097656 C 27.050781 23.058594 27.085938 23.019531 27.117188 22.984375 C 27.144531 22.953125 27.167969 22.925781 27.195312 22.894531 C 27.097656 22.863281 26.992188 22.824219 26.902344 22.796875 C 26.824219 22.699219 26.765625 22.582031 26.667969 22.511719 C 26.441406 22.347656 26.199219 22.210938 25.898438 22.023438 C 25.925781 22.007812 25.945312 21.996094 25.972656 21.984375 C 26.050781 21.9375 26.132812 21.898438 26.210938 21.851562 C 26.199219 21.832031 26.179688 21.808594 26.167969 21.789062 C 25.992188 21.761719 25.816406 21.734375 25.640625 21.714844 L 25.640625 21.664062 C 25.691406 21.632812 25.738281 21.605469 25.816406 21.558594 C 25.726562 21.546875 25.671875 21.539062 25.613281 21.527344 C 25.476562 21.488281 25.394531 21.566406 25.316406 21.652344 C 25.300781 21.664062 25.289062 21.675781 25.277344 21.691406 C 25.199219 21.753906 25.277344 22.027344 25.359375 22.027344 Z M 25.359375 22.027344 " fill-opacity="1" fill-rule="nonzero"/><g clip-path="url(#53596808c7)"><path fill="#00674f" d="M 20.082031 19.464844 C 20.097656 19.453125 20.101562 19.4375 20.113281 19.425781 C 20.285156 19.25 20.363281 19.238281 20.589844 19.320312 C 20.765625 19.386719 20.941406 19.417969 21.125 19.375 C 21.128906 19.355469 21.128906 19.335938 21.136719 19.308594 C 20.875 19.242188 20.621094 19.179688 20.363281 19.113281 C 20.40625 19.066406 20.441406 19.054688 20.480469 19.0625 C 20.679688 19.105469 20.863281 19.230469 21.058594 19.003906 C 21.148438 18.890625 21.371094 18.890625 21.519531 18.847656 C 21.476562 18.832031 21.429688 18.8125 21.378906 18.792969 C 21.378906 18.78125 21.378906 18.769531 21.382812 18.753906 C 21.449219 18.734375 21.519531 18.714844 21.585938 18.695312 C 21.585938 18.683594 21.585938 18.671875 21.585938 18.664062 C 21.480469 18.636719 21.378906 18.613281 21.273438 18.585938 L 21.273438 18.519531 C 21.488281 18.507812 21.695312 18.496094 21.910156 18.488281 C 21.910156 18.476562 21.910156 18.46875 21.910156 18.457031 C 21.695312 18.421875 21.480469 18.382812 21.253906 18.351562 C 21.28125 18.324219 21.292969 18.292969 21.304688 18.292969 C 21.96875 18.214844 22.640625 18.136719 23.304688 18.058594 C 22.492188 18.019531 21.675781 17.988281 20.855469 18.128906 C 20.949219 18.089844 21.046875 18.058594 21.164062 18.007812 C 20.578125 18.039062 20.023438 18.070312 19.472656 18.105469 C 19.472656 18.089844 19.472656 18.070312 19.464844 18.058594 C 19.980469 18.011719 20.492188 17.96875 21.007812 17.921875 C 20.941406 17.914062 20.875 17.921875 20.8125 17.914062 C 20.785156 17.914062 20.757812 17.910156 20.734375 17.910156 C 19.496094 18 18.300781 18.234375 17.15625 18.59375 C 16.941406 18.65625 16.730469 18.730469 16.523438 18.808594 C 15.597656 19.144531 14.714844 19.570312 13.882812 20.0625 C 13.945312 20.082031 14.019531 20.109375 14.082031 20.128906 C 14.089844 20.15625 14.097656 20.175781 14.109375 20.199219 C 14.0625 20.226562 14.023438 20.257812 13.980469 20.285156 C 14.207031 20.1875 14.425781 20.121094 14.675781 20.253906 C 14.621094 20.292969 14.582031 20.324219 14.542969 20.355469 C 14.617188 20.335938 14.679688 20.324219 14.753906 20.304688 C 14.765625 20.324219 14.773438 20.34375 14.785156 20.363281 C 14.660156 20.441406 14.550781 20.539062 14.414062 20.589844 C 14.167969 20.6875 14.078125 20.777344 14.070312 21.019531 C 14.195312 21.066406 14.324219 21.105469 14.445312 21.148438 C 14.410156 21.261719 14.421875 21.300781 14.550781 21.382812 C 14.765625 21.519531 14.988281 21.597656 15.242188 21.488281 C 15.304688 21.460938 15.398438 21.480469 15.476562 21.5 C 15.832031 21.605469 16.101562 21.527344 16.25 21.195312 C 16.289062 21.109375 16.359375 21.039062 16.4375 20.980469 C 16.511719 20.921875 16.601562 20.894531 16.6875 20.851562 C 16.691406 20.753906 16.710938 20.636719 16.769531 20.609375 C 17 20.511719 17.238281 20.425781 17.480469 20.371094 C 17.695312 20.316406 17.914062 20.3125 18.128906 20.273438 C 18.222656 20.257812 18.300781 20.226562 18.273438 20.097656 C 18.265625 20.058594 18.3125 19.980469 18.359375 19.960938 C 18.5 19.902344 18.65625 19.84375 18.808594 19.816406 C 19.160156 19.765625 19.511719 19.730469 19.855469 19.671875 C 20.058594 19.640625 20.257812 19.59375 20.453125 19.53125 C 20.492188 19.515625 20.539062 19.503906 20.578125 19.484375 C 20.472656 19.476562 20.363281 19.464844 20.25 19.457031 C 20.207031 19.472656 20.148438 19.472656 20.082031 19.464844 Z M 20.082031 19.464844 " fill-opacity="1" fill-rule="nonzero"/></g><g clip-path="url(#8203f3f9fa)"><path fill="#ffffff" d="M 36.90625 30 C 36.945312 30.089844 36.984375 30.1875 37.023438 30.28125 C 37.046875 30.339844 37.054688 30.402344 37.082031 30.457031 C 37.113281 30.5 37.140625 30.558594 37.171875 30.605469 C 37.191406 30.695312 37.203125 30.789062 37.214844 30.886719 C 37.839844 31.648438 38.296875 32.363281 38.578125 33.007812 C 38.960938 33.886719 39.007812 34.59375 38.707031 35.113281 C 38.40625 35.636719 37.769531 35.953125 36.8125 36.058594 C 36.597656 36.085938 36.371094 36.097656 36.128906 36.097656 C 35.296875 36.105469 34.308594 35.980469 33.183594 35.71875 C 30.847656 35.191406 28.121094 34.152344 25.328125 32.738281 C 25.261719 32.707031 25.191406 32.71875 25.140625 32.765625 C 25.0625 32.84375 25.082031 32.980469 25.179688 33.03125 C 27.996094 34.457031 30.75 35.503906 33.109375 36.046875 C 34.179688 36.285156 35.128906 36.417969 35.941406 36.429688 C 35.988281 36.429688 36.039062 36.429688 36.085938 36.429688 C 37.554688 36.429688 38.5625 36.046875 39 35.285156 C 39.675781 34.121094 38.929688 32.25 36.90625 30 Z M 36.90625 30 " fill-opacity="1" fill-rule="nonzero"/></g><path fill="#ffffff" d="M 16.140625 26.914062 C 16.210938 26.851562 16.203125 26.734375 16.132812 26.675781 C 15.359375 26.003906 14.65625 25.335938 14.050781 24.671875 C 13.640625 24.226562 13.28125 23.804688 12.976562 23.394531 C 12.929688 23.328125 12.878906 23.265625 12.832031 23.207031 C 12.449219 22.671875 12.148438 22.164062 11.941406 21.695312 C 11.933594 21.691406 11.933594 21.675781 11.929688 21.671875 C 11.910156 21.625 11.890625 21.574219 11.871094 21.527344 C 11.550781 20.726562 11.53125 20.078125 11.8125 19.589844 C 12.109375 19.066406 12.75 18.75 13.707031 18.644531 C 13.933594 18.617188 14.179688 18.605469 14.441406 18.605469 C 15.058594 18.605469 15.761719 18.675781 16.542969 18.820312 C 16.75 18.742188 16.960938 18.671875 17.175781 18.605469 C 14.199219 17.96875 12.195312 18.253906 11.527344 19.417969 C 11.160156 20.050781 11.214844 20.890625 11.660156 21.886719 C 11.679688 21.9375 11.707031 21.984375 11.734375 22.035156 C 11.894531 22.375 12.105469 22.730469 12.359375 23.101562 C 12.390625 23.15625 12.429688 23.207031 12.460938 23.25 C 12.480469 23.277344 12.5 23.304688 12.519531 23.328125 C 12.59375 23.425781 12.664062 23.53125 12.742188 23.628906 C 12.761719 23.660156 12.789062 23.6875 12.808594 23.71875 C 12.828125 23.746094 12.839844 23.765625 12.859375 23.792969 C 12.925781 23.871094 12.988281 23.953125 13.054688 24.039062 C 13.171875 24.183594 13.289062 24.320312 13.414062 24.46875 C 13.535156 24.613281 13.671875 24.761719 13.808594 24.910156 C 14.425781 25.582031 15.136719 26.257812 15.917969 26.941406 C 15.976562 26.972656 16.074219 26.972656 16.140625 26.914062 Z M 16.140625 26.914062 " fill-opacity="1" fill-rule="nonzero"/><path fill="#ffffff" d="M 24.792969 32.628906 C 24.828125 32.582031 24.832031 32.53125 24.832031 32.480469 C 24.828125 32.425781 24.808594 32.375 24.773438 32.335938 C 24.578125 32.101562 24.363281 31.875 24.148438 31.652344 C 24.011719 31.523438 23.875 31.394531 23.738281 31.269531 C 23.414062 30.984375 23.074219 30.714844 22.71875 30.476562 L 22.902344 29.246094 L 22.925781 29.054688 L 23.171875 29.21875 C 23.179688 29.226562 23.1875 29.226562 23.191406 29.230469 C 23.1875 29.226562 23.179688 29.226562 23.171875 29.21875 L 23.308594 29.308594 C 23.40625 29.375 23.542969 29.347656 23.609375 29.246094 L 23.707031 29.09375 C 23.773438 28.996094 23.746094 28.863281 23.640625 28.796875 L 23.503906 28.707031 L 23.023438 28.394531 L 23.082031 27.996094 L 23.40625 25.808594 L 23.472656 25.355469 C 23.5 25.160156 23.441406 24.96875 23.308594 24.828125 L 21.851562 28.289062 L 20.988281 29.363281 L 19.980469 28.710938 C 19.257812 28.242188 18.496094 27.832031 17.707031 27.496094 L 17.914062 26.128906 C 17.953125 25.863281 17.84375 25.601562 17.621094 25.453125 L 16.828125 27.246094 C 16.621094 27.214844 16.445312 27.203125 16.425781 27.234375 C 16.40625 27.261719 16.496094 27.402344 16.621094 27.574219 L 15.300781 29.035156 C 15.527344 29.171875 15.8125 29.171875 16.042969 29.023438 L 17.195312 28.277344 C 17.832031 28.855469 18.515625 29.382812 19.238281 29.851562 L 20.277344 30.527344 L 19.671875 31.777344 L 17.179688 34.574219 C 17.363281 34.625 17.5625 34.601562 17.726562 34.492188 L 18.109375 34.230469 L 19.945312 32.992188 L 20.277344 32.773438 L 20.765625 33.070312 L 20.902344 33.15625 C 21.007812 33.222656 21.136719 33.1875 21.203125 33.085938 L 21.300781 32.929688 C 21.363281 32.824219 21.332031 32.695312 21.226562 32.628906 L 21.089844 32.542969 C 21.105469 32.550781 21.117188 32.5625 21.125 32.570312 C 21.109375 32.558594 21.105469 32.550781 21.089844 32.542969 L 20.835938 32.386719 L 21 32.277344 L 21.996094 31.609375 C 22.515625 31.925781 23.070312 32.199219 23.636719 32.421875 C 23.921875 32.53125 24.214844 32.628906 24.515625 32.714844 C 24.566406 32.726562 24.625 32.726562 24.671875 32.707031 C 24.722656 32.707031 24.761719 32.675781 24.792969 32.628906 Z M 24.792969 32.628906 " fill-opacity="1" fill-rule="nonzero"/></svg>