<?xml version="1.0" encoding="UTF-8"?><svg id="Layer_1" xmlns="http://www.w3.org/2000/svg" xmlns:xlink="http://www.w3.org/1999/xlink" viewBox="0 0 181.6786 48.5898"><defs><clipPath id="clippath"><rect width="59.063" height="39.0381" style="fill:none;"/></clipPath><clipPath id="clippath-1"><rect x="2.4384" y="30.4182" width="90.5941" height="15.9307" style="fill:none;"/></clipPath></defs><path d="M15.4671,17.8192s-.3983.1813-1.0806.5168c-.6815.3373-1.6471.8358-2.7347,1.5321-.5421.3503-1.1094.7573-1.682,1.2157-.1412.1142-.2876.237-.4244.3556-.1429.1272-.2919.2571-.4262.3869-.2754.2597-.5551.5386-.8227.8305-.2702.2911-.5255.6039-.7747.9264-.244.3251-.4758.6658-.6981,1.0144-.217.353-.4174.7172-.5987,1.0928-.1752.3782-.332.766-.4654,1.1617-.0566.1874-.136.4157-.1795.6031-.0566.1926-.0967.3991-.1421.6013-.0758.4079-.1299.8175-.1543,1.227-.0166.4087-.0192.8157.0096,1.2166.034.3983.0819.7939.1717,1.173.0845.38.197.7469.3303,1.0972.0619.1778.1403.3451.2144.5133l.0279.0627.0288.054.0654.1272c.0444.081.0863.1726.1316.2449.3521.6022.7861,1.1504,1.2358,1.5878.4558.4375.9299.7826,1.3769,1.044.4488.2606.8724.4323,1.227.5543.1795.0558.3407.1089.4837.1403.1429.0349.2649.068.366.081.2013.034.3085.0523.3085.0523,0,0-.1089-.0026-.3137-.007-.1037.0017-.2292-.0131-.3782-.027-.1499-.0087-.3181-.041-.5089-.0776-.3765-.0793-.8375-.2004-1.3316-.4288-.495-.224-1.0327-.5377-1.553-.9691-.522-.434-1.0231-.9656-1.4589-1.6366-.4157-.6423-.7678-1.4135-.9752-2.2388-.2126-.8262-.3146-1.7116-.2728-2.6049.0218-.4471.0749-.895.1534-1.3412.0462-.2214.0871-.4427.149-.6676.0566-.2362.1177-.4209.1882-.6501.149-.4288.3233-.8462.5177-1.2523.1996-.4035.4201-.7939.6571-1.1687.4767-.7477,1.0379-1.4179,1.6236-2.0175.2963-.2972.59-.5813.9046-.8401.156-.1351.3076-.2519.4584-.3713.1604-.1246.3111-.237.4671-.3503.6188-.4471,1.2358-.8183,1.8179-1.1312.5813-.3163,1.1329-.5673,1.6244-.7756.4915-.2109.9307-.3669,1.2915-.4941.3608-.1281.6493-.2126.8445-.2736.1961-.0584.3007-.0898.3007-.0898" style="fill:#6cb015;"/><path d="M32.8192,9.1131s-.0723-.0052-.2074-.0157c-.1342-.0096-.3338-.0314-.583-.0427-.1255-.0061-.2632-.0166-.4131-.02-.1516-.0009-.3137-.0078-.4863-.0122-.1734.0017-.3573.0035-.5525.0061-.1926.0078-.3965.0157-.6083.0235-.4227.0322-.8785.0741-1.3569.1447-.4784.0627-.9752.1743-1.485.2919-.5089.1255-1.0257.2867-1.5434.4671-.5133.1917-1.0266.4079-1.5251.6545-.5081.2553-.9761.5272-1.4414.8227-.4558.3041-.8959.6179-1.3029.949-.4018.3355-.7896.6649-1.1286,1.0083-.3442.339-.6519.678-.9334.9952-.1351.1647-.2632.3216-.3861.4715-.1194.1534-.2318.2989-.3381.4357-.1011.1412-.1935.2745-.2841.3948-.088.1229-.1621.2397-.2336.3425-.1421.2074-.2431.3765-.3172.4906-.0732.1142-.1124.1743-.1124.1743,0,0,.0244-.068.0688-.1952.0488-.1264.1081-.319.2135-.549.0514-.1159.1046-.2466.1691-.3861.0654-.1386.1429-.285.2222-.4436.0863-.156.1787-.3216.2754-.4959.1011-.1717.2187-.346.3355-.5325.1264-.1787.2536-.3695.3957-.5595.1455-.1874.2946-.3826.4619-.5717.3233-.3887.6963-.7721,1.1024-1.1477.4087-.3721.8584-.7286,1.336-1.0623.4776-.3277,1.0048-.6344,1.5207-.8976.5342-.258,1.0815-.4863,1.634-.671.5543-.1787,1.1094-.3233,1.6532-.4244.5447-.0976,1.0754-.163,1.58-.1874.2519-.0192.4976-.0218.7347-.0227.237,0,.4662.0139.685.0209.2196.0192.4288.0305.6275.0532.197.0279.3843.054.5604.0793.1752.0322.339.0601.4889.0906.1499.0314.2876.0688.4105.0976.2492.0549.4349.1238.5647.1604.1299.041.1987.0627.1987.0627" style="fill:#6cb015;"/><path d="M33.7822,8.0987s.0732-.0932.2118-.2675c.0688-.0871.1543-.1952.2545-.3216.095-.1307.224-.2658.3678-.4174.1455-.149.2989-.3268.4819-.5002.1882-.1699.3904-.3538.6066-.549.2266-.1848.475-.373.7347-.5769.2667-.1917.5604-.3747.8619-.5752.1577-.0898.3181-.1804.4819-.2736.1656-.0898.3285-.1943.5072-.2728.353-.1665.7146-.3495,1.1077-.4898.7695-.3198,1.6218-.5551,2.5151-.7338.2248-.0357.4523-.0723.6806-.1089.1142-.0218.2301-.0349.3469-.0436.1159-.0105.2327-.0218.3495-.0322.468-.0584.9456-.0471,1.4257-.054.4793.0314.9647.0418,1.4467.1211.2414.0331.4845.0558.7233.1133l.7338.1551c.8933.2423,1.858.61,2.7068,1.0371.4174.2353.8436.4532,1.2262.7277.0976.0654.1952.1307.2919.1961.0985.0636.1935.1299.2832.2031.1839.1421.366.2824.5464.4218.6989.5839,1.336,1.1965,1.8597,1.8458.2771.3111.5072.6449.739.9595.1194.1551.2118.3242.3146.4819.0993.1604.197.3172.2928.4706.1682.3207.339.6214.4819.9177.1307.3033.2588.5865.3695.8567.0967.2763.1874.5342.271.773.0767.2405.1264.468.183.6684.054.2022.1028.3808.1246.5429.027.1595.0505.2954.0697.4052.0375.2196.0575.3364.0575.3364,0,0-.0357-.1133-.1028-.3259-.0706-.2109-.1516-.5255-.3102-.9081-.0767-.1917-.149-.4079-.2519-.6336-.1037-.2248-.2161-.4671-.3364-.7268-.1325-.2536-.2824-.5177-.4349-.7974-.1647-.2736-.3477-.5551-.5325-.8514-.1028-.1403-.2083-.285-.3155-.4314-.1089-.1447-.2092-.3007-.3346-.441-.244-.2867-.4758-.5978-.7582-.8802-.1386-.1438-.2719-.2954-.4174-.4375-.1499-.1386-.3007-.2797-.4532-.4218-.149-.1464-.3146-.2771-.4776-.4131-.1656-.1333-.3242-.2797-.4994-.4061-.6867-.5281-1.4562-.9839-2.2563-1.4048-.8253-.3991-1.6384-.7059-2.5761-.9543l-.6554-.1438c-.2222-.0566-.4506-.0793-.6763-.1133-.4506-.0802-.9072-.0932-1.3578-.1281-.9037-.0139-1.797.02-2.6528.156-.8497.1508-1.675.3224-2.4253.5917-.3826.1124-.7355.2763-1.0867.4105-.1778.0627-.339.1525-.5046.2275-.1647.0776-.3259.1534-.4837.2283-.3033.1717-.5987.332-.8741.4933-.2675.1734-.5255.3338-.7634.4933-.2292.1708-.4445.3303-.6432.4776-.197.1499-.3625.3041-.522.4349-.3207.2588-.5455.5011-.7076.6519-.1604.1543-.2458.237-.2458.237" style="fill:#6cb015;"/><path d="M69.0119,38.0176l-2.821-2.9683h-1.4257l.0627.1604,1.2419.0035,2.6667,2.8044h.2754" style="fill:#fff;"/><path d="M84.2742,37.7073l-1.5312-.6754h.7521c.1403,0,.2536-.1142.2536-.2536,0-.1403-.1133-.2536-.2536-.2536h-1.9007l-1.7238-.7608h1.6253c.1403,0,.2536-.1133.2536-.2527,0-.1403-.1133-.2536-.2536-.2536h-2.7739l-1.8005-.7948h-2.7818l4.5587,3.2846,5.5757-.0401" style="fill:#fff;"/><g style="clip-path:url(#clippath);"><path d="M2.5273,30.5115l.0157-.6719c.0096-.2222.0314-.4445.0462-.6667.02-.2222.054-.4427.0793-.6641.1264-.8819.3407-1.7508.6336-2.5918.5891-1.6811,1.5181-3.2428,2.7094-4.5718,1.1922-1.3273,2.6389-2.4288,4.2459-3.2079,1.6061-.7843,3.3683-1.2366,5.1566-1.3456l.7434-.0453.3094-.7059.2388-.5447c.0828-.1804.1508-.3678.2501-.5394.1909-.3477.3556-.7103.5795-1.0397l.3155-.5055c.1124-.1638.2336-.3216.3503-.4828l.1752-.2405.0889-.1203.0967-.1133.3861-.4549c.0654-.0749.1272-.1534.1952-.2257l.21-.2118.4192-.4262c.1421-.1394.2972-.2649.4445-.3991.1516-.1281.2919-.2719.4532-.3887l.4758-.3625.2388-.1813.251-.163.5011-.3268c.1673-.1089.3477-.1961.5203-.2954.176-.0932.3469-.1996.5272-.2832l.5447-.2501.2719-.1255c.0924-.0383.1874-.0697.2806-.1054l.5621-.2092c.1856-.0776.3826-.1168.5734-.1769l.5761-.1682.5883-.1238.2937-.0627.1473-.0305.1438-.0183.5743-.0776.2876-.041.3224-.0174.8079-.0436.0209-.0017h.0183l.0749-.0009.3024.0009c.8053.0105,1.6105.0906,2.4036.2405l.5926.1115.3669-.4715.3233-.4157.1621-.2074.1734-.1987.346-.3974.3695-.3774.1839-.1882.1952-.1787.3904-.3564.4096-.3338.2048-.1673.2135-.1551.4288-.3102.4453-.2867.2231-.1421.2301-.1316.4593-.2641.475-.237.2379-.1185.244-.1046.4872-.2109.7503-.2719.2545-.0776.5116-.1516c.1708-.0453.3451-.0828.5185-.1246.1726-.041.3451-.0845.522-.1107l.5264-.0915c.176-.0322.346-.0418.5194-.0645l.2597-.0305c.0845-.0105.1726-.02.2693-.0227l.5612-.0288.1403-.0078.0357-.0017.0174-.0009h.0636l.2684.0009c.1787.0009.3582-.0044.5368.0087l.5368.0279.5351.0523c.7111.0863,1.4196.2153,2.1168.3948.6946.1891,1.3769.4279,2.041.7155.6658.2841,1.3037.6318,1.9181,1.0188.6135.3887,1.2053.8175,1.7526,1.3003.5508.4784,1.0719.9935,1.5539,1.5478.4802.5543.9142,1.1504,1.3072,1.7735.2004.3102.3765.6344.556.9578.1656.3303.3329.6606.4784,1.0013.2954.6798.5516,1.3804.7408,2.102.1882.7207.3294,1.4562.4218,2.2022-.0244-.7486-.102-1.5007-.237-2.2441-.1342-.7442-.3381-1.4754-.5848-2.1935-.2466-.719-.5604-1.4162-.9246-2.0872-.3625-.671-.7721-1.3212-1.234-1.9338-.4645-.6109-.9708-1.1922-1.5234-1.7299-.549-.5412-1.1504-1.031-1.7787-1.4806-.631-.4479-1.2933-.8575-1.9905-1.2026-.6946-.3486-1.4162-.6466-2.1578-.8924-.7425-.2388-1.5051-.4218-2.2781-.5455l-.5822-.0837-.5856-.0558c-.1943-.0218-.3904-.0253-.5865-.0357l-.2937-.0131L44.0238,0l-.0915.0009-.1412.0017-.563.0044c-.0915-.0017-.19.0035-.2911.0113l-.3007.02c-.1996.0166-.4052.0218-.5996.0488l-.5865.0749c-.1961.0209-.3887.0601-.583.0967-.1935.0383-.3878.0715-.5813.1133l-.5743.1438-.2876.0741-.2824.0889-.5665.1787-.5551.21-.278.1054-.271.1211-.5429.2431-.529.2719-.2641.1377-.2562.1525-.5098.3068-.4941.3338-.2466.1682-.237.1795-.4741.3634-.4532.3878-.2266.1952-.2153.2057-.4305.4148-.4079.4375-.2031.2196-.1813.2179c-.7146-.1307-1.4379-.2153-2.1648-.2475l-.3451-.0122-.0854-.0017-.0436-.0009-.0802.0017-.1621.0035-.6466.0148-.3233.007-.3556.034-.7111.0715-.1778.0183-.1708.0296-.3416.061-.6824.1229-.6719.1734c-.2222.0645-.4506.1081-.6676.1909l-.6562.2266c-.1089.0392-.2196.0741-.3268.1168l-.3198.1377-.6379.2754c-.2118.0941-.4131.2109-.6196.3155-.2031.1107-.4148.2083-.6118.3294l-.5917.3669-.2946.1848-.2832.2022-.563.4105c-.19.1333-.3582.2946-.5386.4401-.176.1516-.3591.2963-.5281.4549l-.4976.4889-.2475.244c-.0819.0828-.156.1734-.2336.2597l-.4601.5238-.115.1316-.1054.1386-.2109.278c-.1394.1865-.2841.3686-.4183.5595l-.38.5856c-.2658.3835-.4706.8035-.6989,1.2096-.1063.1804-.1865.3739-.2745.5638-1.8536.1682-3.6803.6719-5.3657,1.4702-1.9068.9037-3.6358,2.1857-5.0476,3.7561-1.4153,1.5669-2.5229,3.4145-3.2288,5.4093-.3538.9978-.6031,2.0314-.7495,3.0772-.0305.2632-.0688.5246-.0915.7878-.0174.2632-.0427.5264-.0523.7904-.0052.2623-.0148.529-.0157.7896l.0026.1142.0026.0453.0061.0906.0105.183.0218.3652.0105.1821c.0009.0549.0183.1403.027.2092l.0671.4375.0723.4366c.0279.1412.068.2702.1028.4061l.1072.4026.0549.2004c.02.0671.0479.1307.0706.1961l.2954.7791c.4514,1.0161,1.065,1.953,1.8048,2.7748l.2832.3033c.0941.1011.1891.2013.2954.2911.2065.183.4122.3678.6214.5473l.6353.4654c-2.4881-3.4397-1.9696-8.4386-1.9696-8.4386" style="fill:#fff;"/></g><g style="clip-path:url(#clippath-1);"><path d="M92.7598,39.6368l-2.8576-1.4379c-.4305-.217-.9055-.3277-1.3874-.3251l-19.2667.1386-2.9569-3.0929h-1.6767l1.3996,4.2363-54.5365-.7835-.7303-.0061c-.1194-.0017-.2484,0-.3608-.0052l-.3172-.02c-.4253-.0061-.8401-.0898-1.2575-.1534-.8253-.1813-1.6183-.4933-2.3486-.9133l-.271-.1638c-.0898-.0549-.183-.1046-.2649-.1726l-.5072-.3774-.4697-.4235c-.0819-.0671-.1525-.1447-.2222-.224l-.2126-.2327c-.5569-.6318-1.0135-1.3464-1.356-2.1116l-.2196-.5891c-.0174-.0488-.0392-.0967-.0532-.1473l-.0392-.1516-.0802-.3041c-.0244-.1002-.0584-.2039-.0776-.3007l-.0436-.285-.0497-.2841-.0122-.0715c-.0052-.0218-.0087-.0479-.0096-.0802l-.0105-.183-.0366-.6606s-.5185,4.9988,1.9696,8.4386l.034.0235c.1089.0854.2301.1525.3486.224l.3564.2109c.9612.5429,2.0053.9386,3.0868,1.1626.2719.0462.5455.0837.8183.1238l.2048.0288c.068.0078.1377.0078.2057.0122l.4131.0183.4131.0157c.1307.0035.2458,0,.3695,0l.7303-.0061,66.9813.2013-3.9304,5.459h1.1835l3.3238-2.2528h2.4602c.1403,0,.2536-.1133.2536-.2527,0-.1403-.1133-.2536-.2536-.2536h-1.7116l1.4754-.9996h1.743c.1403,0,.2536-.1142.2536-.2536,0-.1403-.1133-.2536-.2536-.2536h-.9944l1.6131-1.0928,8.8996-.332c.2109-.0078.4009-.1299.4959-.319.1438-.2858.0288-.6336-.2571-.7774" style="fill:#fff;"/></g><path d="M20.2355,27.27v5.0903h-3.6102v-14.8181h5.11c.6342,0,1.2644.055,1.8904.1641.6277.1075,1.2012.32,1.7197.6367.5185.3151.9362.7836,1.2537,1.4047.3167.6195.4759,1.4424.4759,2.468v.3807c0,1.2037-.2158,2.1284-.6465,2.7733-.4316.6457-.9764,1.1142-1.6344,1.4047l2.281,5.5859h-3.8957l-1.9364-5.0903h-1.0076ZM20.2355,24.1555h1.6541c.2404,0,.4775-.041.7122-.1247.2338-.0829.4299-.2445.5875-.4857.1592-.2404.2396-.5949.2396-1.0634v-.151c0-.4677-.0804-.8221-.2396-1.0634-.1575-.2404-.3536-.4012-.5875-.4824-.2347-.0829-.4718-.1247-.7122-.1247h-1.6541v3.4953Z" style="fill:#fff;"/><path d="M31.2899,17.5423h9.3109v3.1179h-5.7008v2.5829h4.749v3.1146h-4.749v2.8881h5.7008v3.1146h-9.3109v-14.8181Z" style="fill:#fff;"/><path d="M49.4879,26.4135c-1.0765-.151-1.9757-.3815-2.6978-.6925-.722-.3101-1.2636-.7598-1.6246-1.3489-.3594-.5883-.5382-1.3637-.5382-2.3269v-.21c0-1.3784.4546-2.482,1.3653-3.3115.9124-.8312,2.2613-1.2471,4.0467-1.2471,1.8748,0,3.2459.416,4.1123,1.2471.8681.8295,1.3029,2.1423,1.3029,3.9384v.4004h-3.6102c0-.8353-.1337-1.4555-.4004-1.8609-.265-.4045-.7335-.6072-1.4047-.6072h-.1904c-.5185,0-.9083.1305-1.1684.3906-.2585.2585-.3873.5776-.3873.9583v.0755c0,.3044.0533.5612.1608.7713.1067.2084.3249.3823.6531.5218.3298.1378.8246.2511,1.4834.338,1.0765.1403,1.9807.3692,2.7142.6859.7352.3151,1.2931.7647,1.6738,1.3489.3807.5825.5711,1.3612.5711,2.3368v.2068c0,1.4572-.466,2.5886-1.3981,3.3935-.9304.8033-2.3007,1.2045-4.1123,1.2045-1.7985,0-3.1663-.4045-4.1025-1.2143-.937-.8115-1.4047-2.148-1.4047-4.0106v-.1707h3.6069c0,.8123.1452,1.3948.4365,1.7493.2929.3545.7491.5317,1.3686.5317h.1904c.6211,0,1.0675-.1419,1.339-.4267.2732-.2864.4102-.6072.4102-.9616v-.0755c0-.2905-.0607-.5399-.1805-.7483-.1206-.21-.3528-.3873-.6958-.5317-.3413-.146-.8484-.2642-1.5195-.3545Z" style="fill:#fff;"/><path d="M59.669,17.5423h9.3109v3.1179h-5.7008v2.5829h4.749v3.1146h-4.749v2.8881h5.7008v3.1146h-9.3109v-14.8181Z" style="fill:#fff;"/><path d="M76.8989,27.27v5.0903h-3.6102v-14.8181h5.11c.6342,0,1.2644.055,1.8904.1641.6277.1075,1.2012.32,1.7197.6367.5185.3151.9362.7836,1.2537,1.4047.3167.6195.4759,1.4424.4759,2.468v.3807c0,1.2037-.2158,2.1284-.6465,2.7733-.4316.6457-.9764,1.1142-1.6344,1.4047l2.281,5.5859h-3.8957l-1.9364-5.0903h-1.0076ZM76.8989,24.1555h1.6541c.2404,0,.4775-.041.7122-.1247.2338-.0829.4299-.2445.5875-.4857.1592-.2404.2396-.5949.2396-1.0634v-.151c0-.4677-.0804-.8221-.2396-1.0634-.1575-.2404-.3536-.4012-.5875-.4824-.2347-.0829-.4718-.1247-.7122-.1247h-1.6541v3.4953Z" style="fill:#fff;"/><path d="M95.6495,32.3604h-4.9394l-3.5347-14.8181h3.8563l2.1464,10.6401,2.1267-10.6401h3.876l-3.5314,14.8181Z" style="fill:#fff;"/><path d="M105.6595,17.5423h4.9394l3.5314,14.8181h-3.8563l-.6072-3.003h-3.0785l-.5875,3.003h-3.876l3.5347-14.8181ZM108.1275,21.7235l-.9124,4.5193h1.8248l-.9124-4.5193Z" style="fill:#fff;"/><path d="M124.1206,20.6602v11.7002h-3.6069v-11.7002h-3.3246v-3.1179h10.2561v3.1179h-3.3246Z" style="fill:#fff;"/><path d="M134.9872,17.5423v14.8181h-3.6102v-14.8181h3.6102Z" style="fill:#fff;"/><path d="M145.0933,32.6262c-1.9889,0-3.4584-.5752-4.4077-1.7263-.9501-1.1528-1.4244-3.0096-1.4244-5.5695v-.7581c0-2.5706.4742-4.429,1.4244-5.5761.9493-1.1462,2.4188-1.7197,4.4077-1.7197,1.9995,0,3.4707.5735,4.4142,1.7197.9452,1.147,1.4178,3.0055,1.4178,5.5761v.7581c0,2.5599-.4726,4.4167-1.4178,5.5695-.9436,1.1511-2.4147,1.7263-4.4142,1.7263ZM144.9981,29.5116h.1904c.5686,0,1.0018-.1707,1.2997-.512.297-.343.4997-.8279.6072-1.4539.1091-.6277.1641-1.3661.1641-2.2153v-.7581c0-.8615-.055-1.6024-.1641-2.2219-.1075-.6211-.3101-1.1027-.6072-1.4441-.2978-.3413-.7311-.512-1.2997-.512h-.1904c-.5694,0-1.0035.1707-1.3029.512-.2978.3413-.5005.823-.6072,1.4441-.1075.6195-.1608,1.3604-.1608,2.2219v.7581c0,.8492.0533,1.5876.1608,2.2153.1067.626.3093,1.1109.6072,1.4539.2995.3413.7335.512,1.3029.512Z" style="fill:#fff;"/><path d="M166.31,17.5423v14.8181h-3.7972l-4.086-8.1688.0952,2.8487v5.3201h-3.4198v-14.8181h3.8005l4.0828,8.1688-.0952-2.8487v-5.3201h3.4198Z" style="fill:#fff;"/><path d="M175.3897,26.4135c-1.0765-.151-1.9757-.3815-2.6978-.6925-.722-.3101-1.2636-.7598-1.6246-1.3489-.3594-.5883-.5382-1.3637-.5382-2.3269v-.21c0-1.3784.4546-2.482,1.3653-3.3115.9124-.8312,2.2613-1.2471,4.0467-1.2471,1.8748,0,3.2459.416,4.1123,1.2471.8681.8295,1.3029,2.1423,1.3029,3.9384v.4004h-3.6102c0-.8353-.1337-1.4555-.4004-1.8609-.265-.4045-.7335-.6072-1.4047-.6072h-.1904c-.5185,0-.9083.1305-1.1684.3906-.2585.2585-.3873.5776-.3873.9583v.0755c0,.3044.0533.5612.1608.7713.1067.2084.3249.3823.6531.5218.3298.1378.8246.2511,1.4834.338,1.0765.1403,1.9807.3692,2.7142.6859.7352.3151,1.2931.7647,1.6738,1.3489.3807.5825.5711,1.3612.5711,2.3368v.2068c0,1.4572-.466,2.5886-1.3981,3.3935-.9304.8033-2.3007,1.2045-4.1123,1.2045-1.7985,0-3.1663-.4045-4.1025-1.2143-.937-.8115-1.4047-2.148-1.4047-4.0106v-.1707h3.6069c0,.8123.1452,1.3948.4365,1.7493.2929.3545.7491.5317,1.3686.5317h.1904c.6211,0,1.0675-.1419,1.339-.4267.2732-.2864.4102-.6072.4102-.9616v-.0755c0-.2905-.0607-.5399-.1805-.7483-.1206-.21-.3528-.3873-.6958-.5317-.3413-.146-.8484-.2642-1.5195-.3545Z" style="fill:#fff;"/><path d="M113.9229,42.2813c0,.7343.0409,1.3727.1226,1.9152.0818.5409.2516.9592.5095,1.2548s.6431.4434,1.1573.4434h.1667c.5472,0,.9293-.1855,1.1478-.5566.2201-.3727.3302-.8444.3302-1.4152h3.1228v.1478c0,1.6542-.4025,2.8209-1.2076,3.5001s-1.9922,1.0189-3.5599,1.0189c-1.7194,0-2.9765-.4977-3.7706-1.4938-.7948-.9977-1.1919-2.6023-1.1919-4.8147v-.6573c0-2.2241.397-3.8319,1.1919-4.8241.7941-.9914,2.0512-1.4875,3.7706-1.4875,1.5677,0,2.7548.3396,3.5599,1.0189s1.2076,1.846,1.2076,3.5001v.6415h-3.1228c0-.4922-.0393-.9246-.1164-1.2957-.0755-.3727-.2186-.6612-.4277-.8648-.2076-.2028-.5189-.305-.934-.305h-.1667c-.5142,0-.8994.1478-1.1573.4434s-.4277.7123-.5095,1.2485c-.0818.537-.1226,1.1785-.1226,1.9246v.6573Z" style="fill:#6cb015;"/><path d="M124.1265,35.5421h8.0538v2.6951h-4.931v2.2359h4.1071v2.6951h-4.1071v2.497h4.931v2.6951h-8.0538v-12.8181Z" style="fill:#6cb015;"/><path d="M145.6041,35.5421v12.8181h-3.2863l-3.5316-7.0663.0818,2.4655v4.6008h-2.9592v-12.8181h3.2863l3.5347,7.0663-.0818-2.4655v-4.6008h2.9561Z" style="fill:#6cb015;"/><path d="M154.9233,38.2371v10.1231h-3.1228v-10.1231h-2.8775v-2.6951h8.8746v2.6951h-2.8743Z" style="fill:#6cb015;"/><path d="M173.6248,35.5421h8.0538v2.6951h-4.931v2.2359h4.1071v2.6951h-4.1071v2.497h4.931v2.6951h-8.0538v-12.8181Z" style="fill:#6cb015;"/><path d="M163.9518,43.9575v4.4027h-3.1228v-12.8181h4.4216c.5472,0,1.0912.0472,1.6321.1415.5425.0928,1.0386.276,1.4875.5503.4505.2752.8121.6808,1.085,1.217.2744.537.412,1.2485.412,2.1353v.3271c0,1.0425-.1871,1.8428-.5598,2.4026-.3711.5582-.842.9623-1.412,1.2139l1.9718,4.8304h-3.3681l-1.6762-4.4027h-.8711ZM163.9518,41.2624h1.4309c.2076,0,.412-.0354.6132-.1069.2028-.0708.3727-.2107.5095-.4183.1384-.2091.2076-.5165.2076-.9214v-.1321c0-.4041-.0692-.7107-.2076-.9183-.1368-.2091-.3066-.3499-.5095-.4214-.2013-.0708-.4057-.1069-.6132-.1069h-1.4309v3.0253Z" style="fill:#6cb015;"/></svg>